<svg width="193" height="196" viewBox="0 0 193 196" fill="none" xmlns="http://www.w3.org/2000/svg">
<path d="M96.4997 187.349C146.723 187.349 187.437 163.476 187.437 134.029C187.437 104.581 146.723 80.7089 96.4997 80.7089C46.2762 80.7089 5.56201 104.581 5.56201 134.029C5.56201 163.476 46.2762 187.349 96.4997 187.349Z" fill="#F0F0F0"/>
<path d="M77.6829 174.432C95.0018 174.432 109.042 166.201 109.042 156.047C109.042 145.894 95.0018 137.663 77.6829 137.663C60.364 137.663 46.3242 145.894 46.3242 156.047C46.3242 166.201 60.364 174.432 77.6829 174.432Z" fill="#E0E0E0"/>
<path d="M166.86 133.045L163.181 130.889C163.181 130.889 162.282 122.892 162.88 116.698C163.722 107.996 169.257 97.5218 175.857 99.9835C182.458 102.445 172.831 111.304 170.689 118.686C168.547 126.067 166.86 133.045 166.86 133.045Z" fill="#39374D"/>
<path opacity="0.15" d="M166.86 133.045L163.181 130.889C163.181 130.889 162.282 122.892 162.88 116.698C163.722 107.996 169.257 97.5218 175.857 99.9835C182.458 102.445 172.831 111.304 170.689 118.686C168.547 126.067 166.86 133.045 166.86 133.045Z" fill="black"/>
<path d="M164.926 132.139C164.985 132.136 165.04 132.11 165.079 132.066C165.119 132.022 165.14 131.964 165.138 131.904C164.494 112.567 173.974 102.837 174.066 102.743C174.108 102.701 174.132 102.643 174.132 102.582C174.132 102.522 174.108 102.464 174.066 102.422C174.046 102.401 174.022 102.384 173.995 102.373C173.968 102.361 173.939 102.356 173.91 102.356C173.881 102.356 173.852 102.361 173.825 102.373C173.799 102.384 173.774 102.401 173.754 102.422C173.653 102.516 164.038 112.386 164.69 131.92C164.691 131.95 164.698 131.98 164.711 132.007C164.723 132.035 164.741 132.059 164.763 132.08C164.785 132.1 164.81 132.116 164.838 132.126C164.866 132.136 164.896 132.141 164.926 132.139Z" fill="white"/>
<path d="M169.172 134.389L166.555 132.857C166.555 132.857 166.107 127.369 168.759 120.705C171.075 114.903 176.788 110.085 179.667 111.097C182.547 112.108 182.474 114.182 181.069 116.357C179.663 118.533 171.129 123.711 169.172 134.389Z" fill="#39374D"/>
<path d="M167.79 133.809C167.849 133.808 167.905 133.784 167.947 133.741C167.989 133.699 168.013 133.642 168.014 133.582C167.96 121.351 179.266 113.088 179.382 113.006C179.406 112.989 179.426 112.967 179.442 112.942C179.458 112.917 179.468 112.889 179.473 112.86C179.477 112.831 179.476 112.801 179.469 112.772C179.462 112.743 179.449 112.716 179.432 112.692C179.398 112.644 179.346 112.611 179.288 112.601C179.231 112.59 179.171 112.604 179.123 112.637C179.007 112.72 167.516 121.124 167.566 133.582C167.566 133.642 167.59 133.7 167.632 133.743C167.674 133.785 167.731 133.809 167.79 133.809Z" fill="white"/>
<path d="M30.749 128.243L34.1458 125.914C34.1458 125.914 35.6396 116.898 34.25 108.945C32.2968 97.7883 24.7042 94.08 22.0022 95.256C19.3002 96.432 18.7212 99.7522 23.7662 106.118C26.7577 109.862 30.6448 117.855 30.749 128.243Z" fill="#39374D"/>
<g opacity="0.15">
<path opacity="0.15" d="M30.749 128.243L34.1458 125.914C34.1458 125.914 35.6396 116.898 34.25 108.945C32.2968 97.7883 24.7042 94.08 22.0022 95.256C19.3002 96.432 18.7212 99.7522 23.7662 106.118C26.7577 109.862 30.6448 117.855 30.749 128.243Z" fill="black"/>
</g>
<path d="M31.9146 123.774H31.8799C31.8452 123.772 31.8113 123.762 31.7805 123.746C31.7498 123.729 31.7227 123.706 31.7012 123.679C31.6797 123.651 31.6643 123.619 31.6558 123.585C31.6473 123.55 31.6461 123.515 31.6521 123.48C32.8796 112.978 28.514 101.579 23.7623 97.0435C23.7166 96.9966 23.6909 96.9332 23.6909 96.8671C23.6909 96.8011 23.7166 96.7377 23.7623 96.6907C23.7849 96.6673 23.812 96.6486 23.8418 96.6359C23.8716 96.6231 23.9036 96.6166 23.936 96.6166C23.9683 96.6166 24.0004 96.6231 24.0302 96.6359C24.06 96.6486 24.0871 96.6673 24.1097 96.6907C28.9501 101.308 33.3968 112.896 32.1539 123.551C32.1466 123.611 32.1186 123.666 32.0747 123.707C32.0309 123.748 31.9741 123.772 31.9146 123.774Z" fill="white"/>
<path d="M21.8554 134.334C21.315 134.664 19.7401 133.476 19.304 133.19C18.5564 132.694 17.9475 132.011 17.5361 131.206C17.0745 130.294 16.9032 129.258 17.0459 128.243C17.1249 127.713 17.2397 127.189 17.3894 126.675C17.5245 126.161 17.6596 125.648 17.7754 125.13C17.9466 124.627 18.0123 124.093 17.9684 123.562C17.8179 122.516 16.8876 121.798 16.0384 121.183C15.1043 120.497 14.1084 119.591 14.1084 118.329C14.156 117.337 14.5298 116.391 15.1699 115.64C15.7489 114.856 16.4437 114.174 16.9648 113.355C17.3723 112.787 17.5803 112.097 17.5554 111.395C17.4883 110.962 17.336 110.547 17.1076 110.176C16.6521 109.36 16.0616 108.608 15.7412 107.741C15.4208 106.875 15.444 105.762 16.1272 105.115C16.6714 104.586 17.5013 104.499 18.254 104.535C18.9633 104.606 19.6485 104.835 20.2612 105.205C22.2569 106.283 23.4303 108.635 25.5417 109.454C26.3562 109.768 27.244 109.823 28.0893 110.034C28.9347 110.246 29.807 110.666 30.2123 111.446C31.0113 112.994 29.6179 114.946 30.1892 116.589C30.6987 118.047 32.1192 118.58 32.922 119.885C33.2479 120.465 33.3831 121.135 33.308 121.798C33.2627 122.918 33.0155 124.019 32.5785 125.048C32.0759 126.115 31.5087 127.149 30.8801 128.145C30.8801 128.145 21.9365 134.284 21.8554 134.334Z" fill="#39374D"/>
<path d="M27.0741 131.085C27.0417 131.084 27.0097 131.077 26.9799 131.064C26.9501 131.051 26.9232 131.032 26.9006 131.009C26.878 130.985 26.8602 130.957 26.8483 130.926C26.8363 130.896 26.8304 130.863 26.831 130.83C27.0471 120.905 22.2376 110.054 18.833 106.918C18.7846 106.874 18.7555 106.812 18.7518 106.746C18.7482 106.68 18.7705 106.615 18.8137 106.565C18.8364 106.542 18.8634 106.523 18.8932 106.51C18.923 106.498 18.9551 106.491 18.9874 106.491C19.0198 106.491 19.0518 106.498 19.0816 106.51C19.1115 106.523 19.1385 106.542 19.1611 106.565C22.6351 109.74 27.5412 120.779 27.3212 130.842C27.3207 130.874 27.3139 130.906 27.3012 130.936C27.2885 130.966 27.2702 130.993 27.2472 131.015C27.2243 131.038 27.1972 131.056 27.1675 131.068C27.1378 131.079 27.1061 131.085 27.0741 131.085Z" fill="white"/>
<path d="M25.2716 118.992C25.2488 118.997 25.2249 118.997 25.2021 118.992C22.0446 118.066 18.1306 117.972 18.092 117.968C18.0597 117.968 18.0279 117.961 17.9983 117.948C17.9687 117.935 17.942 117.916 17.9198 117.892C17.8975 117.868 17.8801 117.84 17.8686 117.81C17.857 117.779 17.8516 117.746 17.8527 117.714C17.8521 117.681 17.8582 117.648 17.8708 117.617C17.8833 117.587 17.902 117.559 17.9256 117.536C17.9491 117.513 17.9771 117.496 18.0078 117.484C18.0384 117.473 18.071 117.468 18.1036 117.471C18.1422 117.471 22.118 117.569 25.3372 118.509C25.3994 118.529 25.4517 118.572 25.4828 118.63C25.5139 118.688 25.5212 118.756 25.5032 118.819C25.4882 118.869 25.4575 118.913 25.4157 118.945C25.3739 118.976 25.3234 118.992 25.2716 118.992Z" fill="white"/>
<path d="M116.248 121.418L114.785 120.56C114.541 120.399 114.338 120.182 114.193 119.927C114.047 119.671 113.963 119.384 113.947 119.09V57.3418C113.963 57.0475 114.047 56.7612 114.192 56.5059C114.337 56.2506 114.538 56.0334 114.781 55.8718L155.446 32.0303C155.705 31.897 155.991 31.8276 156.282 31.8276C156.572 31.8276 156.858 31.897 157.118 32.0303L158.58 32.8888C158.824 33.0495 159.027 33.2664 159.173 33.5219C159.318 33.7773 159.402 34.0641 159.418 34.3588V96.1066C159.402 96.4008 159.318 96.6871 159.174 96.9425C159.029 97.1978 158.827 97.415 158.584 97.5766L117.919 121.422C117.66 121.556 117.374 121.625 117.083 121.624C116.793 121.624 116.506 121.553 116.248 121.418Z" fill="#455A64"/>
<path d="M159.418 34.2216C159.36 33.7826 159.009 33.6218 158.588 33.8688L117.919 57.7142C117.673 57.8708 117.47 58.0879 117.329 58.3453L114.19 56.5068C114.331 56.2475 114.534 56.0289 114.781 55.8718L155.446 32.0303C155.705 31.897 155.991 31.8276 156.282 31.8276C156.572 31.8276 156.858 31.897 157.117 32.0303L158.58 32.8888C158.806 33.0365 158.998 33.2321 159.143 33.4621C159.287 33.6922 159.381 33.9513 159.418 34.2216Z" fill="#455A64"/>
<path d="M117.777 121.489C117.53 121.59 117.264 121.637 116.998 121.625C116.731 121.614 116.47 121.545 116.233 121.422L114.766 120.56C114.523 120.398 114.321 120.181 114.177 119.925C114.032 119.67 113.948 119.384 113.932 119.09V57.3418C113.942 57.047 114.026 56.7596 114.175 56.5068L117.313 58.3453C117.161 58.5984 117.076 58.8875 117.066 59.1842V120.932C117.082 121.418 117.383 121.642 117.777 121.489Z" fill="#263238"/>
<path d="M117.082 59.192V120.932C117.082 121.473 117.468 121.692 117.919 121.422L158.584 97.5766C158.827 97.415 159.029 97.1978 159.174 96.9425C159.318 96.6872 159.402 96.4009 159.418 96.1066V34.3588C159.418 33.8178 159.032 33.5983 158.584 33.8688L117.919 57.7142C117.674 57.8756 117.471 58.0938 117.325 58.3507C117.18 58.6076 117.096 58.8959 117.082 59.192Z" fill="#37474F"/>
<path d="M107.586 82.712C107.061 82.3945 104.625 80.9872 104.498 80.9127C104.399 80.8526 104.314 80.7706 104.25 80.6727C104.186 80.5749 104.145 80.4638 104.129 80.3475C104.113 80.2312 104.123 80.1128 104.158 80.001C104.193 79.8892 104.253 79.7868 104.332 79.7014L113.947 69.2272L117.082 71.0539L107.47 81.536C107.395 81.6176 107.337 81.7147 107.302 81.8208C107.266 81.9268 107.254 82.0393 107.265 82.1507C107.276 82.2622 107.31 82.3699 107.366 82.4667C107.421 82.5635 107.496 82.6472 107.586 82.712Z" fill="#455A64"/>
<path d="M117.082 71.0657L107.47 81.536C107.364 81.6517 107.294 81.7976 107.27 81.9544C107.247 82.1112 107.271 82.2715 107.339 82.4142C107.407 82.5568 107.516 82.6752 107.652 82.7535C107.788 82.8319 107.944 82.8666 108.099 82.8531L117.082 82.1005V71.0657Z" fill="#37474F"/>
<path d="M138.25 52.2144C142.99 49.4351 146.831 51.6891 146.831 57.2477C146.831 62.8062 142.99 69.5604 138.25 72.3397C133.51 75.1189 129.669 72.865 129.669 67.3103C129.669 61.7557 133.51 54.9937 138.25 52.2144Z" fill="#39374D"/>
<path d="M138.188 56.5891C139.732 55.6875 140.971 56.4166 140.971 58.2198C140.919 59.2 140.639 60.1538 140.156 61.0038C139.672 61.8538 138.998 62.5761 138.188 63.112C136.644 64.0136 135.401 63.2845 135.401 61.4813C135.454 60.5007 135.734 59.5467 136.219 58.6967C136.703 57.8466 137.378 57.1246 138.188 56.5891Z" fill="white"/>
<path d="M143.677 66.201C143.677 63.2414 141.627 62.0379 139.103 63.5197L137.524 64.4448C135 65.9266 132.95 69.5408 132.95 72.4926V73.304C133.427 73.4587 133.924 73.5367 134.425 73.5353C135.779 73.4885 137.098 73.0831 138.25 72.3593C140.444 70.9867 142.301 69.123 143.677 66.9105V66.201Z" fill="white"/>
<path d="M132.815 99.8541L143.685 93.4802C144.148 93.2098 144.523 93.4293 144.523 93.9702V97.5257C144.507 97.8204 144.423 98.1071 144.277 98.3626C144.132 98.618 143.929 98.8349 143.685 98.9957L132.815 105.37C132.352 105.64 131.978 105.421 131.978 104.88V101.324C131.993 101.029 132.077 100.743 132.223 100.487C132.368 100.232 132.571 100.015 132.815 99.8541Z" fill="#39374D"/>
<path d="M127.492 91.9122L148.996 79.2977C149.548 78.9723 150 79.235 150 79.8857V81.2067C149.981 81.5602 149.88 81.9042 149.706 82.2107C149.532 82.5172 149.288 82.7776 148.996 82.9707L127.481 95.5853C126.929 95.9106 126.481 95.648 126.481 94.9973V93.688C126.499 93.3317 126.599 92.9848 126.775 92.676C126.951 92.3672 127.197 92.1054 127.492 91.9122Z" fill="#FAFAFA"/>
<path d="M130.009 82.7825C130.302 82.6101 130.53 82.5826 130.692 82.7041C130.854 82.8257 130.935 83.0961 130.935 83.5117C130.943 83.8909 130.86 84.2665 130.692 84.6054C130.54 84.9117 130.303 85.1654 130.009 85.3345L129.43 85.6755V86.9417C129.429 86.9853 129.418 87.0281 129.399 87.0671C129.385 87.1026 129.361 87.1328 129.33 87.1534L129.036 87.3258C129.026 87.3335 129.014 87.3376 129.001 87.3376C128.989 87.3376 128.977 87.3335 128.967 87.3258C128.946 87.2993 128.936 87.2655 128.94 87.2318V83.5665C128.939 83.5232 128.949 83.4803 128.967 83.4411C128.981 83.4063 129.005 83.3763 129.036 83.3549L130.009 82.7825ZM129.43 84.966L129.99 84.6367C130.125 84.5592 130.239 84.4488 130.322 84.3153C130.409 84.1578 130.452 83.9786 130.445 83.7978C130.445 83.5862 130.403 83.4646 130.322 83.4294C130.264 83.4152 130.205 83.4146 130.147 83.4275C130.09 83.4404 130.036 83.4665 129.99 83.5038L129.43 83.8331V84.966Z" fill="#FAFAFA"/>
<path d="M132.553 81.289C132.591 81.2655 132.622 81.2655 132.641 81.289C132.666 81.3242 132.683 81.3643 132.692 81.4066L133.583 84.4721C133.583 84.4721 133.583 84.4956 133.583 84.5074C133.583 84.551 133.572 84.594 133.552 84.6328C133.539 84.6683 133.514 84.6985 133.483 84.719L133.22 84.8719C133.174 84.8994 133.139 84.9033 133.12 84.8719C133.101 84.8522 133.088 84.8279 133.081 84.8014L132.923 84.2643L131.765 84.9386L131.611 85.6598C131.6 85.6989 131.586 85.7369 131.568 85.7735C131.549 85.8213 131.513 85.8603 131.468 85.8833L131.206 86.0361C131.196 86.0444 131.183 86.049 131.171 86.049C131.158 86.049 131.146 86.0444 131.136 86.0361C131.116 86.0108 131.106 85.9785 131.109 85.946C131.107 85.9317 131.107 85.9172 131.109 85.9029L131.997 81.7947C132.007 81.7343 132.024 81.6752 132.047 81.6183C132.066 81.5771 132.097 81.5429 132.136 81.5203L132.553 81.289ZM132.753 83.6646L132.367 82.2808L131.981 84.131L132.753 83.6646Z" fill="#FAFAFA"/>
<path d="M134.934 79.8347C135.063 79.7519 135.21 79.7022 135.363 79.6897C135.47 79.6798 135.578 79.7045 135.671 79.7602C135.756 79.8161 135.822 79.8967 135.861 79.9915C135.903 80.088 135.926 80.1918 135.93 80.2973C135.933 80.3408 135.923 80.3843 135.903 80.4227C135.889 80.4582 135.865 80.4884 135.834 80.509L135.579 80.6579C135.536 80.6814 135.505 80.6853 135.486 80.6579C135.462 80.6419 135.442 80.6204 135.428 80.5952C135.413 80.5599 135.39 80.5282 135.363 80.5019C135.335 80.4756 135.302 80.4554 135.266 80.4423C135.149 80.4252 135.029 80.4562 134.934 80.5285C134.872 80.5695 134.812 80.6154 134.757 80.6657C134.699 80.7193 134.649 80.7799 134.606 80.8461C134.565 80.9099 134.531 80.9783 134.506 81.0499C134.483 81.1181 134.471 81.1896 134.471 81.2616C134.466 81.3276 134.478 81.3936 134.506 81.4537C134.518 81.4747 134.534 81.4925 134.554 81.5055C134.575 81.5185 134.598 81.5262 134.621 81.5281C134.693 81.5407 134.766 81.5407 134.838 81.5281L135.173 81.4537C135.299 81.416 135.429 81.4001 135.559 81.4066C135.653 81.4063 135.743 81.4366 135.818 81.4929C135.889 81.5532 135.94 81.6338 135.965 81.7241C136.003 81.8511 136.02 81.9836 136.015 82.1161C136.015 82.2913 135.99 82.4655 135.942 82.6336C135.894 82.8064 135.826 82.9724 135.737 83.1275C135.644 83.2865 135.532 83.4338 135.405 83.5665C135.275 83.7033 135.127 83.8207 134.965 83.9154C134.846 83.9889 134.716 84.0407 134.579 84.0683C134.468 84.09 134.353 84.0805 134.247 84.0409C134.151 83.9953 134.071 83.9198 134.019 83.8253C133.956 83.7043 133.922 83.5701 133.919 83.4333C133.919 83.3887 133.928 83.3445 133.946 83.3039C133.963 83.2705 133.988 83.2422 134.019 83.2216L134.274 83.0726C134.313 83.0491 134.344 83.0413 134.367 83.053C134.39 83.0648 134.405 83.0844 134.421 83.1197C134.437 83.16 134.457 83.1982 134.483 83.2334C134.507 83.2675 134.54 83.2935 134.579 83.3078C134.63 83.3197 134.683 83.3197 134.733 83.3078C134.815 83.2882 134.894 83.2551 134.965 83.2098C135.04 83.1665 135.111 83.1166 135.177 83.0609C135.307 82.9565 135.41 82.8221 135.478 82.6689C135.509 82.5903 135.525 82.5065 135.525 82.4219C135.528 82.3912 135.526 82.3601 135.517 82.3304C135.509 82.3008 135.494 82.2732 135.475 82.2494C135.454 82.2308 135.429 82.2169 135.402 82.2088C135.376 82.2006 135.348 82.1985 135.32 82.2024C135.233 82.2061 135.146 82.2205 135.062 82.2455C134.961 82.269 134.845 82.2965 134.71 82.32C134.607 82.3463 134.5 82.3542 134.394 82.3435C134.31 82.338 134.231 82.3034 134.17 82.2455C134.103 82.1791 134.056 82.0948 134.035 82.0025C134.004 81.8663 133.989 81.7267 133.992 81.587C133.992 81.4144 134.017 81.2427 134.066 81.0774C134.112 80.9072 134.179 80.7439 134.266 80.5913C134.35 80.4397 134.451 80.2989 134.567 80.1718C134.673 80.0424 134.797 79.9289 134.934 79.8347Z" fill="#FAFAFA"/>
<path d="M137.47 78.353C137.598 78.2676 137.746 78.2164 137.898 78.204C138.006 78.1947 138.114 78.2193 138.207 78.2746C138.29 78.3319 138.354 78.4122 138.392 78.5058C138.435 78.6023 138.458 78.7061 138.462 78.8116C138.467 78.8553 138.457 78.8993 138.435 78.937C138.421 78.9725 138.397 79.0027 138.365 79.0233L138.111 79.1722C138.072 79.1958 138.041 79.2036 138.018 79.1722C137.993 79.1565 137.975 79.1331 137.964 79.1056C137.929 79.0368 137.87 78.9837 137.798 78.9566C137.74 78.9481 137.682 78.9513 137.625 78.9661C137.569 78.9809 137.516 79.007 137.47 79.0429C137.405 79.0829 137.345 79.1288 137.289 79.1801C137.232 79.2337 137.183 79.2943 137.142 79.3604C137.099 79.4233 137.066 79.4919 137.041 79.5642C137.017 79.6322 137.004 79.7037 137.003 79.7759C136.998 79.8419 137.01 79.908 137.038 79.968C137.049 79.9891 137.066 80.0068 137.086 80.0198C137.107 80.0328 137.13 80.0406 137.153 80.0425C137.225 80.0551 137.298 80.0551 137.37 80.0425L137.705 79.968C137.831 79.9325 137.961 79.9166 138.091 79.921C138.185 79.9201 138.275 79.9504 138.35 80.0072C138.421 80.0684 138.473 80.1486 138.501 80.2385C138.535 80.3662 138.55 80.4982 138.547 80.6305C138.547 80.8056 138.522 80.9798 138.474 81.1479C138.426 81.3208 138.358 81.4868 138.269 81.6418C138.176 81.8023 138.065 81.951 137.937 82.0848C137.807 82.2182 137.66 82.3341 137.501 82.4298C137.382 82.503 137.251 82.5547 137.115 82.5826C137.005 82.604 136.892 82.5945 136.787 82.5552C136.688 82.5111 136.607 82.4353 136.555 82.3396C136.492 82.219 136.459 82.0843 136.459 81.9476C136.454 81.9039 136.464 81.8599 136.486 81.8222C136.499 81.7867 136.524 81.7565 136.555 81.7359L136.81 81.587C136.848 81.5634 136.883 81.5556 136.903 81.5674C136.916 81.5735 136.928 81.5828 136.937 81.5943C136.947 81.6059 136.953 81.6194 136.957 81.634C136.974 81.6736 136.995 81.7116 137.018 81.7477C137.044 81.7821 137.079 81.8081 137.119 81.8222C137.169 81.8341 137.222 81.8341 137.273 81.8222C137.355 81.8025 137.433 81.7694 137.505 81.7242C137.578 81.6798 137.647 81.63 137.713 81.5752C137.781 81.5215 137.841 81.4581 137.891 81.387C137.941 81.3193 137.982 81.2456 138.014 81.1675C138.045 81.089 138.061 81.0051 138.061 80.9206C138.064 80.8899 138.062 80.8587 138.053 80.8291C138.044 80.7994 138.03 80.7719 138.01 80.7481C137.989 80.7294 137.965 80.7155 137.938 80.7074C137.912 80.6993 137.884 80.6971 137.856 80.701C137.77 80.7064 137.684 80.7208 137.601 80.7442C137.501 80.7677 137.381 80.7951 137.25 80.8186C137.145 80.8449 137.037 80.8529 136.93 80.8422C136.846 80.8377 136.766 80.8029 136.706 80.7442C136.64 80.6774 136.595 80.5931 136.574 80.5011C136.54 80.3668 136.525 80.2282 136.528 80.0895C136.529 79.9158 136.554 79.743 136.601 79.576C136.649 79.4065 136.717 79.2433 136.802 79.0899C136.886 78.9374 136.988 78.7964 137.107 78.6705C137.211 78.5461 137.333 78.439 137.47 78.353Z" fill="#FAFAFA"/>
<path d="M140.284 78.843L139.971 80.7206C139.962 80.7771 139.946 80.8323 139.925 80.8853C139.91 80.9275 139.881 80.9634 139.844 80.9872L139.551 81.1597C139.512 81.1832 139.485 81.1832 139.466 81.1597C139.44 81.1274 139.425 81.0876 139.423 81.046L138.96 77.7336C138.96 77.7336 138.96 77.7022 138.96 77.6905C138.961 77.6469 138.972 77.604 138.991 77.565C139.005 77.5302 139.03 77.5003 139.06 77.4788L139.327 77.322C139.349 77.3128 139.374 77.3128 139.396 77.322C139.419 77.322 139.435 77.3534 139.442 77.4161L139.747 79.6465L140.014 77.9727C140.021 77.931 140.032 77.8902 140.048 77.8512C140.064 77.8016 140.097 77.7596 140.141 77.7336L140.438 77.5572C140.481 77.5337 140.512 77.5376 140.531 77.5572C140.548 77.5821 140.559 77.6101 140.566 77.6395L140.836 78.9998L141.141 76.4125C141.145 76.3617 141.159 76.3122 141.183 76.2675C141.201 76.2382 141.225 76.2129 141.253 76.193L141.519 76.0362C141.529 76.0286 141.541 76.0245 141.554 76.0245C141.566 76.0245 141.579 76.0286 141.589 76.0362C141.6 76.0491 141.608 76.064 141.613 76.0801C141.619 76.0963 141.621 76.1133 141.619 76.1303C141.621 76.146 141.621 76.1617 141.619 76.1774L141.156 80.0307C141.149 80.0871 141.134 80.1424 141.114 80.1954C141.096 80.2372 141.067 80.2727 141.029 80.2973L140.732 80.4698C140.697 80.4894 140.67 80.4894 140.651 80.4698C140.631 80.4337 140.616 80.3956 140.604 80.3561L140.284 78.843Z" fill="#FAFAFA"/>
<path d="M142.091 77.1809C142.099 76.9635 142.125 76.7472 142.168 76.5341C142.212 76.3258 142.279 76.1232 142.369 75.9304C142.454 75.7429 142.563 75.5676 142.693 75.409C142.825 75.2517 142.983 75.119 143.16 75.017C143.296 74.9233 143.455 74.8704 143.619 74.8641C143.742 74.8655 143.859 74.9146 143.947 75.0013C144.041 75.1081 144.108 75.2356 144.144 75.3737C144.194 75.5538 144.221 75.7395 144.225 75.9265C144.225 75.997 144.225 76.0754 144.225 76.1617C144.225 76.2479 144.225 76.3381 144.225 76.4322C144.225 76.5262 144.225 76.6164 144.225 76.7026C144.225 76.7889 144.225 76.8712 144.225 76.9457C144.217 77.1617 144.191 77.3768 144.148 77.5886C144.103 77.7962 144.037 77.9986 143.951 78.1922C143.863 78.3791 143.753 78.5542 143.623 78.7136C143.491 78.8694 143.335 79.0019 143.16 79.1056C143.021 79.1986 142.859 79.2515 142.693 79.2585C142.633 79.2597 142.573 79.2486 142.517 79.2256C142.461 79.2027 142.411 79.1686 142.369 79.1252C142.268 79.0154 142.198 78.8799 142.168 78.7332C142.122 78.5525 142.096 78.3671 142.091 78.1805C142.091 78.1099 142.091 78.0315 142.091 77.9453C142.091 77.859 142.091 77.7689 142.091 77.6748C142.091 77.5807 142.091 77.4945 142.091 77.4043C142.091 77.3142 142.087 77.2514 142.091 77.1809ZM143.735 76.244C143.744 76.1481 143.733 76.0514 143.704 75.9598C143.675 75.8682 143.627 75.7835 143.565 75.7109C143.465 75.6207 143.326 75.6246 143.16 75.7109C142.98 75.8184 142.837 75.98 142.751 76.1734C142.641 76.402 142.583 76.6524 142.581 76.9065C142.581 77.0515 142.581 77.2122 142.581 77.3886C142.581 77.565 142.581 77.7218 142.581 77.863C142.572 77.9589 142.583 78.0555 142.612 78.1472C142.641 78.2388 142.688 78.3235 142.751 78.3961C142.851 78.4823 142.99 78.4745 143.16 78.3765C143.337 78.2682 143.478 78.1084 143.565 77.9178C143.675 77.6907 143.733 77.4416 143.735 77.1887C143.735 77.0398 143.735 76.879 143.735 76.7026C143.735 76.5262 143.739 76.3851 143.735 76.244Z" fill="#FAFAFA"/>
<path d="M145.908 73.453C146.213 73.2766 146.441 73.2491 146.599 73.3785C146.693 73.4834 146.762 73.6081 146.803 73.7437C146.844 73.8792 146.854 74.0222 146.834 74.1625C146.837 74.4287 146.797 74.6937 146.715 74.9465C146.636 75.1819 146.514 75.4001 146.356 75.5894L146.857 76.6987C146.859 76.717 146.859 76.7353 146.857 76.7536C146.858 76.7889 146.85 76.8238 146.834 76.8555C146.824 76.884 146.805 76.9085 146.78 76.9261L146.471 77.1064C146.421 77.1338 146.386 77.1378 146.363 77.1064C146.343 77.0858 146.326 77.062 146.313 77.0358L145.838 75.9892L145.356 76.2714V77.5964C145.356 77.6397 145.347 77.6826 145.329 77.7218C145.313 77.7559 145.289 77.7855 145.259 77.8081L144.966 77.9805C144.956 77.9888 144.944 77.9934 144.931 77.9934C144.919 77.9934 144.906 77.9888 144.897 77.9805C144.885 77.9685 144.877 77.9543 144.872 77.9388C144.866 77.9233 144.864 77.9068 144.866 77.8904V74.2252C144.867 74.1816 144.877 74.1388 144.897 74.0998C144.91 74.0643 144.934 74.0341 144.966 74.0135L145.908 73.453ZM145.364 75.5619L145.908 75.264C146.041 75.1886 146.155 75.0825 146.24 74.9543C146.329 74.8033 146.372 74.6286 146.363 74.4526C146.363 74.2409 146.321 74.1233 146.24 74.0998C146.122 74.0835 146.003 74.1145 145.908 74.186L145.383 74.4918L145.364 75.5619Z" fill="#FAFAFA"/>
<path d="M148.494 71.9438C148.634 71.8509 148.794 71.7944 148.961 71.7791C149.082 71.7746 149.2 71.8182 149.289 71.9006C149.391 72.0098 149.462 72.1454 149.494 72.2926C149.546 72.487 149.574 72.6871 149.579 72.8885C149.579 73.1629 149.579 73.4451 149.579 73.7313C149.571 73.9647 149.542 74.1969 149.494 74.4251C149.45 74.6372 149.382 74.8436 149.293 75.0406C149.207 75.2214 149.098 75.3901 148.969 75.5423C148.84 75.6982 148.686 75.8307 148.513 75.9343L147.598 76.44C147.589 76.4483 147.576 76.4528 147.564 76.4528C147.551 76.4528 147.539 76.4483 147.529 76.44C147.518 76.4281 147.509 76.4139 147.504 76.3984C147.498 76.3828 147.497 76.3662 147.498 76.3498V72.6846C147.499 72.641 147.51 72.5982 147.529 72.5592C147.543 72.5237 147.567 72.4935 147.598 72.473L148.494 71.9438ZM149.088 73.1629C149.087 73.0567 149.071 72.9513 149.042 72.8493C149.024 72.7721 148.985 72.7015 148.93 72.6454C148.906 72.6208 148.877 72.6015 148.845 72.5887C148.813 72.5759 148.779 72.5699 148.745 72.571C148.648 72.5775 148.555 72.61 148.475 72.665L147.988 72.9473V75.5031L148.494 75.2091C148.592 75.1513 148.679 75.0771 148.753 74.9896C148.824 74.9036 148.885 74.8088 148.934 74.7074C148.982 74.5994 149.018 74.4863 149.042 74.3702C149.069 74.2492 149.084 74.1258 149.088 74.0018C149.1 73.7156 149.1 73.4373 149.088 73.1629Z" fill="#FAFAFA"/>
<path d="M95.4888 15.0489C96.1551 15.1994 96.7971 15.4449 97.3957 15.778C97.9688 16.0909 98.4825 16.5051 98.9126 17.001C99.3242 17.4781 99.6296 18.0397 99.8082 18.6474C99.9903 19.298 100.004 19.9854 99.8468 20.6427C99.7432 21.1639 99.54 21.6593 99.2485 22.101C98.9823 22.4786 98.6653 22.8164 98.3066 23.1045C97.9544 23.3822 97.5785 23.6275 97.1834 23.8375L96.0717 24.4373C95.7368 24.6146 95.4189 24.8233 95.1221 25.0606C94.8536 25.2697 94.6478 25.5507 94.5277 25.872C94.4689 26.0188 94.3714 26.1463 94.2459 26.2405C94.1865 26.2873 94.1174 26.3198 94.0439 26.3354C93.9703 26.351 93.8942 26.3494 93.8213 26.3306L92.1847 25.9622C92.1058 25.9454 92.0311 25.9128 91.9648 25.8664C91.8986 25.8199 91.8421 25.7605 91.7987 25.6917C91.7524 25.6277 91.7217 25.5535 91.709 25.4752C91.6962 25.3969 91.7018 25.3166 91.7253 25.2409C91.8571 24.7261 92.0894 24.2436 92.4085 23.8218C92.6997 23.4488 93.037 23.1155 93.4121 22.8301C93.7776 22.5584 94.165 22.3184 94.5701 22.1127C94.9561 21.9128 95.3421 21.7207 95.678 21.5286C95.9903 21.3581 96.2841 21.1544 96.5542 20.921C96.7912 20.7195 96.9555 20.4437 97.0212 20.137C97.0826 19.8707 97.0796 19.5932 97.0124 19.3284C96.9452 19.0635 96.8157 18.8191 96.6352 18.6161C96.1839 18.1156 95.5805 17.783 94.9214 17.6714C93.7016 17.397 92.6723 17.8138 91.8334 18.9218C91.7524 19.0428 91.6504 19.1477 91.5323 19.2315C91.3991 19.2986 91.2452 19.3098 91.1039 19.2629L89.363 18.8709C89.2388 18.8465 89.1292 18.7732 89.0581 18.667C89.0201 18.6103 88.9945 18.5459 88.9832 18.4783C88.9719 18.4107 88.975 18.3413 88.9924 18.275C89.1404 17.7303 89.4158 17.23 89.7953 16.8168C90.2233 16.3376 90.7317 15.9394 91.2969 15.6408C91.9148 15.3125 92.5808 15.0874 93.2693 14.9744C94.0069 14.8526 94.7608 14.8779 95.4888 15.0489ZM93.6399 27.6634C93.793 27.6999 93.926 27.7958 94.0104 27.9306C94.0948 28.0654 94.1239 28.2284 94.0915 28.3847L93.6746 30.3055C93.6605 30.3859 93.6298 30.4624 93.5846 30.53C93.5394 30.5975 93.4806 30.6546 93.4121 30.6975C93.3475 30.7428 93.2743 30.7738 93.1972 30.7887C93.1201 30.8035 93.0408 30.8018 92.9644 30.7838L91.0961 30.3486C91.0167 30.335 90.9411 30.3042 90.8745 30.2582C90.8078 30.2122 90.7518 30.1521 90.7101 30.0821C90.6669 30.0159 90.6374 29.9414 90.6234 29.8632C90.6095 29.785 90.6114 29.7048 90.6291 29.6274L91.0498 27.7066C91.0858 27.5508 91.1801 27.4155 91.3126 27.3291C91.4452 27.2428 91.6057 27.2123 91.7601 27.244L93.6399 27.6634Z" fill="#39374D"/>
<path d="M97.5498 33.4376C98.0146 33.3619 98.4876 33.3526 98.9549 33.4102C99.4013 33.464 99.835 33.5967 100.236 33.8022C100.619 34.0036 100.955 34.284 101.225 34.6254C101.467 34.9595 101.637 35.3414 101.725 35.7465C101.813 36.1516 101.816 36.5709 101.734 36.9774C101.661 37.2898 101.542 37.5896 101.383 37.8672C101.229 38.1372 101.051 38.3918 100.85 38.6277C100.653 38.8629 100.464 39.0863 100.29 39.3019C100.12 39.5028 99.9692 39.7193 99.8388 39.9487C99.7165 40.1498 99.6548 40.3828 99.6613 40.619C99.6579 40.7295 99.6273 40.8373 99.5725 40.9326C99.5445 40.9766 99.5077 41.014 99.4645 41.0424C99.4212 41.0708 99.3725 41.0895 99.3216 41.0973L98.1636 41.2854C98.1095 41.2954 98.0539 41.2943 98.0002 41.2822C97.9465 41.2701 97.8958 41.2472 97.8509 41.2149C97.8053 41.1858 97.7672 41.1461 97.7397 41.099C97.7121 41.052 97.696 40.999 97.6927 40.9444C97.6441 40.5796 97.6704 40.2086 97.7699 39.8546C97.8606 39.5413 97.9903 39.2409 98.1559 38.9609C98.3182 38.6921 98.5042 38.4389 98.7117 38.2043C98.9163 37.9691 99.0977 37.7496 99.2753 37.5379C99.4338 37.3489 99.571 37.1425 99.6844 36.9225C99.7849 36.7331 99.8215 36.5156 99.7886 36.3031C99.7596 36.1161 99.6865 35.939 99.5756 35.7868C99.4648 35.6346 99.3193 35.5118 99.1517 35.429C98.7368 35.2254 98.267 35.1675 97.8162 35.2643C97.408 35.3249 97.0282 35.5123 96.729 35.8008C96.4297 36.0892 96.2257 36.4646 96.1448 36.8754C96.1222 36.9743 96.083 37.0684 96.029 37.1538C95.9601 37.2282 95.8667 37.2742 95.7665 37.2831L94.5468 37.483C94.461 37.4997 94.3723 37.4814 94.2997 37.4321C94.2626 37.4061 94.2313 37.3724 94.208 37.3332C94.1847 37.294 94.1699 37.2502 94.1646 37.2047C94.1283 36.8157 94.188 36.4237 94.3383 36.064C94.491 35.6455 94.7158 35.2579 95.0022 34.9194C95.3162 34.5487 95.6863 34.2311 96.0985 33.9786C96.5433 33.7046 97.0362 33.5209 97.5498 33.4376ZM99.5416 42.0028C99.5947 41.9942 99.649 41.9964 99.7014 42.0092C99.7537 42.022 99.803 42.0451 99.8465 42.0773C99.892 42.1076 99.9307 42.1475 99.9599 42.1941C99.9892 42.2407 100.008 42.2931 100.016 42.3478L100.233 43.6923C100.249 43.8014 100.223 43.9128 100.159 44.0023C100.096 44.0918 100 44.1523 99.8929 44.1706L98.5998 44.3862C98.4924 44.403 98.3829 44.3763 98.2948 44.3117C98.25 44.2809 98.2121 44.2409 98.1835 44.1943C98.1549 44.1477 98.1363 44.0956 98.1288 44.0412L97.9127 42.6966C97.9029 42.6427 97.9043 42.5872 97.917 42.5339C97.9296 42.4805 97.9531 42.4305 97.986 42.387C98.0163 42.3415 98.0557 42.303 98.1016 42.2739C98.1474 42.2449 98.1988 42.226 98.2524 42.2184L99.5416 42.0028Z" fill="#39374D"/>
<g opacity="0.2">
<path opacity="0.2" d="M97.5498 33.4376C98.0146 33.3619 98.4876 33.3526 98.9549 33.4102C99.4013 33.464 99.835 33.5967 100.236 33.8022C100.619 34.0036 100.955 34.284 101.225 34.6254C101.467 34.9595 101.637 35.3414 101.725 35.7465C101.813 36.1516 101.816 36.5709 101.734 36.9774C101.661 37.2898 101.542 37.5896 101.383 37.8672C101.229 38.1372 101.051 38.3918 100.85 38.6277C100.653 38.8629 100.464 39.0863 100.29 39.3019C100.12 39.5028 99.9692 39.7193 99.8388 39.9487C99.7165 40.1498 99.6548 40.3828 99.6613 40.619C99.6579 40.7295 99.6273 40.8373 99.5725 40.9326C99.5445 40.9766 99.5077 41.014 99.4645 41.0424C99.4212 41.0708 99.3725 41.0895 99.3216 41.0973L98.1636 41.2854C98.1095 41.2954 98.0539 41.2943 98.0002 41.2822C97.9465 41.2701 97.8958 41.2472 97.8509 41.2149C97.8053 41.1858 97.7672 41.1461 97.7397 41.099C97.7121 41.052 97.696 40.999 97.6927 40.9444C97.6441 40.5796 97.6704 40.2086 97.7699 39.8546C97.8606 39.5413 97.9903 39.2409 98.1559 38.9609C98.3182 38.6921 98.5042 38.4389 98.7117 38.2043C98.9163 37.9691 99.0977 37.7496 99.2753 37.5379C99.4338 37.3489 99.571 37.1425 99.6844 36.9225C99.7849 36.7331 99.8215 36.5156 99.7886 36.3031C99.7596 36.1161 99.6865 35.939 99.5756 35.7868C99.4648 35.6346 99.3193 35.5118 99.1517 35.429C98.7368 35.2254 98.267 35.1675 97.8162 35.2643C97.408 35.3249 97.0282 35.5123 96.729 35.8008C96.4297 36.0892 96.2257 36.4646 96.1448 36.8754C96.1222 36.9743 96.083 37.0684 96.029 37.1538C95.9601 37.2282 95.8667 37.2742 95.7665 37.2831L94.5468 37.483C94.461 37.4997 94.3723 37.4814 94.2997 37.4321C94.2626 37.4061 94.2313 37.3724 94.208 37.3332C94.1847 37.294 94.1699 37.2502 94.1646 37.2047C94.1283 36.8157 94.188 36.4237 94.3383 36.064C94.491 35.6455 94.7158 35.2579 95.0022 34.9194C95.3162 34.5487 95.6863 34.2311 96.0985 33.9786C96.5433 33.7046 97.0362 33.5209 97.5498 33.4376ZM99.5416 42.0028C99.5947 41.9942 99.649 41.9964 99.7014 42.0092C99.7537 42.022 99.803 42.0451 99.8465 42.0773C99.892 42.1076 99.9307 42.1475 99.9599 42.1941C99.9892 42.2407 100.008 42.2931 100.016 42.3478L100.233 43.6923C100.249 43.8014 100.223 43.9128 100.159 44.0023C100.096 44.0918 100 44.1523 99.8929 44.1706L98.5998 44.3862C98.4924 44.403 98.3829 44.3763 98.2948 44.3117C98.25 44.2809 98.2121 44.2409 98.1835 44.1943C98.1549 44.1477 98.1363 44.0956 98.1288 44.0412L97.9127 42.6966C97.9029 42.6427 97.9043 42.5872 97.917 42.5339C97.9296 42.4805 97.9531 42.4305 97.986 42.387C98.0163 42.3415 98.0557 42.303 98.1016 42.2739C98.1474 42.2449 98.1988 42.226 98.2524 42.2184L99.5416 42.0028Z" fill="black"/>
</g>
<path d="M108.466 35.5505C108.519 35.5876 108.563 35.6353 108.597 35.6906C108.631 35.7458 108.653 35.8076 108.663 35.8719C108.675 35.9357 108.674 36.0014 108.66 36.0648C108.646 36.1282 108.62 36.188 108.582 36.2404L107.663 37.5536C107.627 37.607 107.58 37.6523 107.525 37.6867C107.471 37.7211 107.41 37.7438 107.347 37.7535C107.284 37.766 107.219 37.7651 107.157 37.7509C107.094 37.7368 107.035 37.7096 106.984 37.6712L105.718 36.7578C105.665 36.7212 105.621 36.6736 105.587 36.6182C105.554 36.5627 105.533 36.5008 105.525 36.4364C105.512 36.3726 105.513 36.307 105.527 36.2435C105.541 36.1801 105.568 36.1203 105.606 36.0679L106.536 34.7547C106.611 34.6483 106.725 34.5762 106.852 34.5542C106.979 34.5322 107.11 34.562 107.215 34.6371L108.466 35.5505ZM113.808 26.656C114.27 26.9846 114.681 27.3809 115.028 27.832C115.367 28.2516 115.628 28.7296 115.8 29.2432C115.96 29.7353 116.014 30.2568 115.958 30.772C115.893 31.3214 115.688 31.8442 115.364 32.289C115.123 32.6487 114.813 32.9554 114.453 33.1906C114.136 33.3925 113.791 33.5457 113.43 33.6454C113.078 33.7387 112.719 33.8017 112.357 33.8335L111.33 33.9276C111.022 33.9526 110.717 34.0064 110.419 34.0883C110.144 34.1517 109.893 34.2931 109.694 34.496C109.604 34.5887 109.49 34.6539 109.365 34.6842C109.306 34.7014 109.244 34.704 109.183 34.6917C109.123 34.6795 109.066 34.6527 109.018 34.6136L107.899 33.8061C107.792 33.7285 107.718 33.6119 107.694 33.4807C107.68 33.4171 107.68 33.351 107.696 33.2877C107.711 33.2243 107.741 33.1656 107.783 33.1162C108.044 32.7716 108.371 32.4837 108.744 32.2694C109.08 32.0833 109.438 31.9423 109.809 31.85C110.168 31.7616 110.533 31.7052 110.902 31.6814C111.265 31.6579 111.604 31.6305 111.921 31.5991C112.21 31.5731 112.496 31.5153 112.774 31.4266C113.016 31.3446 113.225 31.1833 113.368 30.968C113.497 30.7862 113.581 30.5754 113.613 30.3536C113.644 30.1318 113.623 29.9055 113.55 29.694C113.367 29.1715 113.018 28.7259 112.558 28.4278C111.724 27.8242 110.814 27.8046 109.829 28.369C109.729 28.4332 109.62 28.4783 109.504 28.5023C109.444 28.5066 109.384 28.4987 109.327 28.4792C109.27 28.4597 109.218 28.4289 109.172 28.3886L107.984 27.5302C107.94 27.5011 107.904 27.4636 107.875 27.4199C107.847 27.3761 107.827 27.3269 107.818 27.2754C107.808 27.222 107.81 27.1673 107.823 27.1147C107.835 27.062 107.859 27.0126 107.891 26.9696C108.171 26.6046 108.536 26.3152 108.952 26.1268C109.426 25.9091 109.932 25.7765 110.45 25.7348C111.02 25.6864 111.593 25.7328 112.148 25.872C112.748 26.0186 113.312 26.2851 113.808 26.656Z" fill="#39374D"/>
<g opacity="0.6">
<path opacity="0.6" d="M108.466 35.5505C108.519 35.5876 108.563 35.6353 108.597 35.6906C108.631 35.7458 108.653 35.8076 108.663 35.8719C108.675 35.9357 108.674 36.0014 108.66 36.0648C108.646 36.1282 108.62 36.188 108.582 36.2404L107.663 37.5536C107.627 37.607 107.58 37.6523 107.525 37.6867C107.471 37.7211 107.41 37.7438 107.347 37.7535C107.284 37.766 107.219 37.7651 107.157 37.7509C107.094 37.7368 107.035 37.7096 106.984 37.6712L105.718 36.7578C105.665 36.7212 105.621 36.6736 105.587 36.6182C105.554 36.5627 105.533 36.5008 105.525 36.4364C105.512 36.3726 105.513 36.307 105.527 36.2435C105.541 36.1801 105.568 36.1203 105.606 36.0679L106.536 34.7547C106.611 34.6483 106.725 34.5762 106.852 34.5542C106.979 34.5322 107.11 34.562 107.215 34.6371L108.466 35.5505ZM113.808 26.656C114.27 26.9846 114.681 27.3809 115.028 27.832C115.367 28.2516 115.628 28.7296 115.8 29.2432C115.96 29.7353 116.014 30.2568 115.958 30.772C115.893 31.3214 115.688 31.8442 115.364 32.289C115.123 32.6487 114.813 32.9554 114.453 33.1906C114.136 33.3925 113.791 33.5457 113.43 33.6454C113.078 33.7387 112.719 33.8017 112.357 33.8335L111.33 33.9276C111.022 33.9526 110.717 34.0064 110.419 34.0883C110.144 34.1517 109.893 34.2931 109.694 34.496C109.604 34.5887 109.49 34.6539 109.365 34.6842C109.306 34.7014 109.244 34.704 109.183 34.6917C109.123 34.6795 109.066 34.6527 109.018 34.6136L107.899 33.8061C107.792 33.7285 107.718 33.6119 107.694 33.4807C107.68 33.4171 107.68 33.351 107.696 33.2877C107.711 33.2243 107.741 33.1656 107.783 33.1162C108.044 32.7716 108.371 32.4837 108.744 32.2694C109.08 32.0833 109.438 31.9423 109.809 31.85C110.168 31.7616 110.533 31.7052 110.902 31.6814C111.265 31.6579 111.604 31.6305 111.921 31.5991C112.21 31.5731 112.496 31.5153 112.774 31.4266C113.016 31.3446 113.225 31.1833 113.368 30.968C113.497 30.7862 113.581 30.5754 113.613 30.3536C113.644 30.1318 113.623 29.9055 113.55 29.694C113.367 29.1715 113.018 28.7259 112.558 28.4278C111.724 27.8242 110.814 27.8046 109.829 28.369C109.729 28.4332 109.62 28.4783 109.504 28.5023C109.444 28.5066 109.384 28.4987 109.327 28.4792C109.27 28.4597 109.218 28.4289 109.172 28.3886L107.984 27.5302C107.94 27.5011 107.904 27.4636 107.875 27.4199C107.847 27.3761 107.827 27.3269 107.818 27.2754C107.808 27.222 107.81 27.1673 107.823 27.1147C107.835 27.062 107.859 27.0126 107.891 26.9696C108.171 26.6046 108.536 26.3152 108.952 26.1268C109.426 25.9091 109.932 25.7765 110.45 25.7348C111.02 25.6864 111.593 25.7328 112.148 25.872C112.748 26.0186 113.312 26.2851 113.808 26.656Z" fill="white"/>
</g>
<path d="M79.7209 70.2503H66.0063V36.507C66.0063 33.5762 67.1528 30.7655 69.1934 28.6931C71.2341 26.6207 74.0018 25.4565 76.8877 25.4565H78.1538C81.0397 25.4565 83.8074 26.6207 85.848 28.6931C87.8887 30.7655 89.0351 33.5762 89.0351 36.507V60.811C89.03 63.3162 88.0464 65.7171 86.3002 67.4868C84.554 69.2564 82.1879 70.2503 79.7209 70.2503Z" fill="#263238"/>
<path d="M64.6706 151.484C64.428 152.883 64.2989 154.299 64.2846 155.718C64.2344 158.29 63.7712 159.203 63.7094 161.312C63.6361 163.723 64.0491 164.624 65.0103 165.981C65.9714 167.337 68.4843 168.564 69.5728 166.275C70.6613 163.985 70.503 162.484 70.1595 160.12C69.8082 157.674 69.7735 156.322 69.5573 154.46C69.3798 152.817 69.1713 151.567 69.1713 151.567L64.6706 151.484Z" fill="#263238"/>
<path d="M71.8581 134.405L63.5205 134.252C63.644 139.905 64.528 146.181 64.6785 151.5C64.7094 152.5 64.6554 159.258 65.0259 161.3C65.5856 164.389 69.1908 163.97 69.3838 162.123C69.5768 160.277 69.1522 152.386 69.1638 151.571C69.1291 148.168 70.7078 142.425 71.5223 136.318C71.557 136.024 71.8195 134.699 71.8581 134.405Z" fill="#FFA8A7"/>
<path d="M82.5696 147.086C82.5696 147.086 82.2415 146.906 82.1836 147.263C82.1025 147.686 81.979 148.56 81.7976 149.258C81.5583 150.226 81.3576 151.822 81.5004 152.613C81.6432 153.405 83.4574 154.417 84.6347 154.785C86.0857 155.24 87.4089 156.039 88.4947 157.118C89.6527 158.231 92.1733 159.281 93.8987 159.27C95.9252 159.27 97.3379 158.584 98.0057 157.482C98.6735 156.381 97.3958 156.247 95.0798 154.738L93.2849 153.562C89.6141 151.128 88.2669 149.826 87.2363 147.392L82.5696 147.086Z" fill="#263238"/>
<path d="M87.2673 145.577C87.2055 143.829 88.3944 128.968 88.3944 128.968L80.4775 132.633C82.1721 142.911 82.5349 145.338 82.5619 147.02C82.5272 147.16 82.5129 147.306 82.5195 147.451C82.5195 149.446 84.7467 150.524 86.476 151.857C87.946 153.026 89.5126 154.065 91.1582 154.961C92.4165 155.6 94.9718 155.659 95.2884 154.84C93.1808 153.205 90.116 150.759 88.4407 148.893C87.6224 148.015 87.329 147.329 87.2673 145.577Z" fill="#FFA8A7"/>
<path d="M66.9366 79.2467C63.8949 86.0244 63.8949 91.2694 64.4006 99.9208C64.8484 107.859 65.5933 114.856 65.5933 114.856C65.4775 116.263 63.5514 119.011 63.3005 125.236C63.0689 131.053 63.6865 138.45 63.6865 138.45C63.6865 138.45 68.0136 140.885 71.2135 138.427C71.2135 138.427 74.3015 123.456 75.2047 116.173C75.9767 109.819 77.3663 101.7 77.3663 101.7L80.2884 116.13C79.6577 118.177 79.2005 120.276 78.9219 122.402C78.5128 126.687 80.8751 135.099 80.8751 135.099C80.8751 135.099 85.345 136.451 88.074 133.993C88.074 133.993 89.093 120.317 89.4752 115.158C89.9847 108.247 88.9116 89.5406 88.074 79.6348L66.9366 79.2467Z" fill="#455A64"/>
<path d="M77.374 101.689L78.5745 90.8146C78.5745 90.8146 83.9553 90.0855 86.3949 87.757C85.6966 88.8664 84.7665 89.8061 83.6704 90.5093C82.5743 91.2126 81.3393 91.6621 80.0529 91.826L78.3159 101.944L80.2883 116.13L77.374 101.689Z" fill="#263238"/>
<path d="M99.1637 76.5733C99.386 74.5889 99.4839 72.5922 99.457 70.5953C99.3374 68.8705 99.0324 68.5882 96.6585 65.5346C93.4547 61.4068 90.718 57.6946 87.823 54.0058C85.754 51.3716 83.577 50.9678 81.4617 51.0854C79.9795 51.1678 82.8745 58.408 84.3297 62.6926L92.6403 71.7791C92.8977 72.1377 93.0159 72.5802 92.9722 73.0218L92.4704 80.752L94.9601 84.1389C94.9601 84.1389 98.7313 80.8382 99.1637 76.5733Z" fill="#FFA8A7"/>
<path d="M73.4483 51.3206C71.8387 51.4343 68.9128 51.7126 68.9128 51.7126C67.226 52.6691 66.7976 53.457 66.4849 55.7306C66.3498 56.7028 67.1295 59.2861 67.7973 62.9591L69.0634 69.7682L68.9244 73.1472C68.2682 75.2091 66.7821 77.7689 65.4697 81.5438C71.9159 85.1973 77.3199 85.3345 82.2221 84.6798C85.9586 84.1898 87.9388 83.2726 88.5988 82.3631C88.4599 78.6352 88.2128 76.3302 88.1356 72.4338C88.1086 70.7991 88.2051 69.1449 88.2707 67.2633C90.7759 65.17 90.8068 61.689 89.4287 59.4233C86.252 54.1979 83.1601 50.909 81.1143 51.0776L73.4483 51.3206Z" fill="#39374D"/>
<path opacity="0.6" d="M73.4483 51.3206C71.8387 51.4343 68.9128 51.7126 68.9128 51.7126C67.226 52.6691 66.7976 53.457 66.4849 55.7306C66.3498 56.7028 67.1295 59.2861 67.7973 62.9591L69.0634 69.7682L68.9244 73.1472C68.2682 75.2091 66.7821 77.7689 65.4697 81.5438C71.9159 85.1973 77.3199 85.3345 82.2221 84.6798C85.9586 84.1898 87.9388 83.2726 88.5988 82.3631C88.4599 78.6352 88.2128 76.3302 88.1356 72.4338C88.1086 70.7991 88.2051 69.1449 88.2707 67.2633C90.7759 65.17 90.8068 61.689 89.4287 59.4233C86.252 54.1979 83.1601 50.909 81.1143 51.0776L73.4483 51.3206Z" fill="white"/>
<path opacity="0.1" d="M83.2796 67.3142C83.2796 67.3142 80.3383 69.6349 76.9762 68.4236C76.0321 68.1215 75.1808 67.577 74.5046 66.8429C73.8283 66.1088 73.3501 65.2099 73.1162 64.2331C73.1162 64.2331 72.7611 68.1335 76.9955 69.4624C81.0987 70.7442 83.2796 67.3142 83.2796 67.3142Z" fill="black"/>
<path d="M87.2711 40.6151C87.1438 46.2756 85.3411 47.6711 84.4302 48.0631C83.5192 48.4551 81.7745 48.2199 80.0761 47.9338V51.352C80.0761 51.352 82.037 53.4374 81.8903 54.9937C81.7436 56.5499 78.8023 56.7263 76.6098 55.2014C75.4 54.3575 74.3058 53.3544 73.3558 52.2183C73.1734 51.9991 73.0736 51.7213 73.074 51.4343V43.4375C73.074 43.4375 72.1438 44.4371 70.4994 43.2925C70.1446 43.0625 69.8408 42.7601 69.6073 42.4045C69.3738 42.0488 69.2157 41.6478 69.1431 41.2267C69.0705 40.8057 69.085 40.3739 69.1856 39.9589C69.2862 39.5438 69.4707 39.1546 69.7274 38.8158C70.4454 37.9574 72.2673 37.8986 73.1397 39.2078C73.6337 40.1839 73.6994 41.1678 74.2513 40.7758C75.7181 39.7018 74.9307 37.2478 76.7024 36.0718C77.2838 35.7637 77.8878 35.5016 78.5089 35.2878C81.6703 34.1785 84.4109 33.2455 85.0709 31.0503C86.3139 31.7716 87.4255 33.9394 87.2711 40.6151Z" fill="#FFA8A7"/>
<path d="M81.0371 45.6719C81.4422 45.6719 81.7705 45.3385 81.7705 44.9271C81.7705 44.5158 81.4422 44.1823 81.0371 44.1823C80.6321 44.1823 80.3037 44.5158 80.3037 44.9271C80.3037 45.3385 80.6321 45.6719 81.0371 45.6719Z" fill="#B16668"/>
<path d="M80.5508 39.7566C80.5507 39.91 80.5062 40.0599 80.4229 40.1879C80.3397 40.3158 80.2213 40.4162 80.0825 40.4765C79.9437 40.5368 79.7905 40.5544 79.6419 40.5272C79.4933 40.5 79.3558 40.4292 79.2464 40.3234C79.1371 40.2176 79.0607 40.0816 79.0267 39.9322C78.9927 39.7828 79.0026 39.6266 79.0551 39.4828C79.1077 39.339 79.2006 39.2141 79.3224 39.1234C79.4441 39.0327 79.5894 38.9803 79.7402 38.9726C79.8448 38.9673 79.9494 38.9837 80.0475 39.0207C80.1457 39.0577 80.2354 39.1146 80.3113 39.1879C80.3871 39.2613 80.4474 39.3495 80.4886 39.4473C80.5298 39.5451 80.551 39.6503 80.5508 39.7566Z" fill="#263238"/>
<path d="M86.3987 39.8351C86.4066 39.931 86.3956 40.0275 86.3663 40.1191C86.3371 40.2106 86.2903 40.2954 86.2285 40.3683C86.1667 40.4413 86.0912 40.5011 86.0064 40.5441C85.9217 40.5871 85.8293 40.6126 85.7347 40.6191C85.6393 40.628 85.5431 40.6162 85.4525 40.5845C85.362 40.5528 85.2791 40.5019 85.2093 40.4352C85.1396 40.3685 85.0846 40.2874 85.0481 40.1975C85.0116 40.1075 84.9943 40.0107 84.9975 39.9135C84.9875 39.8168 84.9971 39.7192 85.0256 39.6264C85.0541 39.5337 85.101 39.4479 85.1633 39.3742C85.2257 39.3005 85.3022 39.2405 85.3881 39.198C85.4741 39.1554 85.5678 39.131 85.6633 39.1265C85.7589 39.122 85.8543 39.1373 85.9438 39.1715C86.0334 39.2058 86.115 39.2582 86.1839 39.3257C86.2527 39.3931 86.3073 39.4741 86.3442 39.5637C86.3812 39.6533 86.3997 39.7497 86.3987 39.8468V39.8351Z" fill="#263238"/>
<path d="M79.5588 41.7715C78.893 41.7715 78.2544 41.5032 77.7833 41.0255C77.3121 40.5477 77.0469 39.8997 77.0459 39.2235C77.0459 37.4909 78.8061 37.4909 79.5588 37.4909C80.3115 37.4909 82.0677 37.4909 82.0677 39.2235C82.0667 39.899 81.8021 40.5465 81.3318 41.0241C80.8614 41.5017 80.2239 41.7705 79.5588 41.7715ZM79.5588 37.8907C78.0148 37.8907 77.4435 38.2827 77.4435 39.2235C77.4435 39.7953 77.6671 40.3437 78.0653 40.7481C78.4634 41.1524 79.0034 41.3795 79.5665 41.3795C80.1295 41.3795 80.6695 41.1524 81.0677 40.7481C81.4658 40.3437 81.6895 39.7953 81.6895 39.2235C81.674 38.2631 81.0796 37.8907 79.5588 37.8907Z" fill="#455A64"/>
<path d="M85.9313 41.7715C85.2655 41.7715 84.627 41.5032 84.1558 41.0255C83.6847 40.5477 83.4195 39.8997 83.4185 39.2235C83.4185 37.4909 85.1786 37.4909 85.9313 37.4909C86.684 37.4909 88.4403 37.4909 88.4403 39.2235C88.4393 39.899 88.1746 40.5465 87.7043 41.0241C87.234 41.5017 86.5964 41.7705 85.9313 41.7715ZM85.9313 37.8907C84.4105 37.8907 83.816 38.2827 83.816 39.2235C83.816 39.7953 84.0397 40.3437 84.4379 40.7481C84.836 41.1524 85.376 41.3795 85.939 41.3795C86.5021 41.3795 87.0421 41.1524 87.4402 40.7481C87.8384 40.3437 88.062 39.7953 88.062 39.2235C88.0466 38.2631 87.4522 37.8907 85.9313 37.8907Z" fill="#455A64"/>
<path d="M82.4575 38.4003L82.581 43.1631L85.0476 42.387L82.4575 38.4003Z" fill="#F28F8F"/>
<path d="M80.072 47.9455C78.281 47.7064 74.5947 46.6323 74.0195 45.1506C74.251 45.8994 74.7022 46.5586 75.3126 47.04C76.4127 48.0004 80.072 49.0784 80.072 49.0784V47.9455Z" fill="#F28F8F"/>
<path d="M80.161 36.0875L78.5244 37.1028C78.3954 36.8746 78.3579 36.6048 78.4197 36.3493C78.4815 36.0938 78.6379 35.8723 78.8563 35.7308C78.9643 35.6643 79.0844 35.6207 79.2095 35.6026C79.3345 35.5845 79.4619 35.5924 79.5838 35.6258C79.7058 35.6591 79.8198 35.7172 79.919 35.7966C80.0182 35.876 80.1005 35.9749 80.161 36.0875Z" fill="#263238"/>
<path d="M86.8195 37.2165L84.9976 36.5697C85.0328 36.4471 85.0924 36.3331 85.1727 36.2347C85.2529 36.1363 85.3521 36.0556 85.4642 35.9976C85.5763 35.9396 85.6988 35.9055 85.8244 35.8974C85.9499 35.8892 86.0757 35.9073 86.1942 35.9503C86.4385 36.0395 86.6397 36.2207 86.7561 36.4564C86.8726 36.6921 86.8952 36.9643 86.8195 37.2165Z" fill="#263238"/>
<path d="M81.8707 39.4274C81.8446 39.4274 81.8186 39.4221 81.7945 39.4118C81.7704 39.4015 81.7485 39.3864 81.7301 39.3674C81.7118 39.3484 81.6974 39.3259 81.6877 39.3012C81.6781 39.2765 81.6734 39.2501 81.6739 39.2235C81.6739 38.8982 82.3069 38.6865 82.8782 38.6865C83.4495 38.6865 83.8162 38.8982 83.8162 39.2235C83.8042 39.2661 83.7789 39.3036 83.7441 39.3303C83.7092 39.3569 83.6668 39.3714 83.6232 39.3714C83.5796 39.3714 83.5371 39.3569 83.5023 39.3303C83.4675 39.3036 83.4422 39.2661 83.4302 39.2235C83.4302 39.1843 83.2333 39.0863 82.8898 39.0863C82.6132 39.0803 82.338 39.1282 82.0792 39.2274C82.0792 39.2547 82.0738 39.2817 82.0632 39.3068C82.0526 39.3318 82.037 39.3544 82.0175 39.3731C81.998 39.3919 81.9749 39.4063 81.9496 39.4157C81.9244 39.425 81.8975 39.429 81.8707 39.4274Z" fill="#455A64"/>
<path d="M77.2502 39.2549H77.2271L72.8151 38.8629C72.6089 38.6554 72.3633 38.4927 72.0933 38.3847L77.2734 38.8707C77.3253 38.8776 77.3726 38.9048 77.405 38.9466C77.4375 38.9883 77.4526 39.0413 77.4471 39.0942C77.438 39.1402 77.4134 39.1814 77.3774 39.2108C77.3414 39.2402 77.2964 39.2558 77.2502 39.2549Z" fill="#455A64"/>
<path d="M59.1354 43.9275C60.5791 41.9675 61.5634 40.4897 62.8796 38.8315C63.6285 37.879 64.1071 37.1969 64.8096 36.2208C65.3037 35.5466 65.5816 34.9782 66.1452 34.7704C66.7541 34.517 67.3028 34.1349 67.7548 33.6493C68.0327 33.3371 68.2905 33.0071 68.5268 32.6614C69.3542 31.5305 70.3369 30.526 71.445 29.6783C72.603 28.7924 73.8961 28.1103 75.0888 27.2675C75.7991 26.7618 76.5595 25.923 75.6948 25.139C75.4296 24.9122 75.1123 24.7571 74.7723 24.6882C72.6686 24.2256 70.839 24.9586 68.7816 25.4918C67.8879 25.7183 67.0139 26.0185 66.1684 26.3894C65.7525 26.5565 65.3624 26.7836 65.0104 27.0637C64.5181 27.5677 64.1147 28.1537 63.8176 28.7963C62.9182 30.427 60.9882 31.8853 59.6372 33.175C58.0585 34.6842 56.6457 36.0679 54.8431 37.73C53.2219 39.2314 51.6355 40.6112 50.1494 42.2498C48.918 43.6022 49.3774 44.6606 49.5395 45.029C50.5431 47.1223 51.6663 47.875 53.0135 49.1725C55.3295 51.4186 63.339 57.8827 65.9908 60.0191C66.5606 60.4736 67.008 61.0669 67.2916 61.7439L67.8011 62.9395C70.8274 63.504 72.8462 58.8902 70.341 53.3355C69.9262 52.4373 69.2924 51.6615 68.4998 51.0815C65.3346 48.7413 59.1354 43.9275 59.1354 43.9275Z" fill="#FFA8A7"/>
<path d="M59.1354 43.9275C58.1722 45.1309 56.8885 46.0276 55.4375 46.5108C55.4375 46.5108 57.3675 47.0126 60.0116 44.6018L59.1354 43.9275Z" fill="#F28F8F"/>
<path d="M98.3762 72.4847L97.8822 72.0535C97.8083 72.0041 97.7241 71.9731 97.6362 71.9628C97.5484 71.9526 97.4594 71.9636 97.3765 71.9947L92.015 73.4765C91.7449 73.5679 91.4975 73.7175 91.2896 73.9151C91.0817 74.1127 90.9184 74.3535 90.8106 74.6211L86.9506 85.9225C86.9042 86.0146 86.8859 86.1187 86.8983 86.2214C86.9107 86.3241 86.9531 86.4207 87.0201 86.4987L87.5296 86.9456C87.6038 86.9975 87.6893 87.0303 87.7787 87.0413C87.8681 87.0522 87.9588 87.0409 88.043 87.0083L93.4123 85.5266C93.6824 85.4351 93.9298 85.2855 94.1377 85.0879C94.3455 84.8904 94.5089 84.6495 94.6166 84.3819C95.3886 82.1593 97.7046 75.3032 98.4766 73.0806C98.5692 72.8022 98.5229 72.5906 98.3762 72.4847Z" fill="#455A64"/>
<path d="M87.4561 86.3576L91.3161 75.0562C91.4234 74.7888 91.5867 74.5482 91.7946 74.3513C92.0026 74.1543 92.2502 74.0056 92.5204 73.9155L97.8781 72.4338C98.376 72.2966 98.6501 72.5866 98.4725 73.0806C97.7005 75.3032 95.3845 82.1593 94.6125 84.3819C94.5048 84.6495 94.3414 84.8904 94.1336 85.0879C93.9257 85.2855 93.6783 85.4351 93.4082 85.5266L88.0505 87.024C87.5564 87.1416 87.2901 86.8515 87.4561 86.3576Z" fill="#39374D"/>
<path d="M91.938 74.2291C91.6592 74.4435 91.4431 74.7307 91.3126 75.0602L87.4526 86.3576C87.4084 86.4473 87.39 86.5479 87.3996 86.6477C87.4092 86.7476 87.4463 86.8427 87.5067 86.9221L87.028 86.5066C86.9595 86.4295 86.9157 86.3331 86.9026 86.2301C86.8895 86.1271 86.9077 86.0225 86.9547 85.9303L90.8147 74.629C90.9368 74.3217 91.1349 74.0517 91.3898 73.845L91.938 74.2291Z" fill="#37474F"/>
<path d="M96.9056 77.6356C96.5196 78.7842 95.1801 79.5525 92.9645 80.0856C90.7488 80.6187 89.5252 83.006 89.8765 83.7312C90.2277 84.4564 93.8098 85.1346 95.2419 84.9268C96.674 84.719 98.1099 82.6179 98.5461 81.9672C98.9822 81.3165 99.484 76.7771 99.0247 76.1538C98.5654 75.5306 97.5965 75.6286 97.5965 75.6286L96.9056 77.6356Z" fill="#F28F8F"/>
</svg>
