<svg width="220" height="201" viewBox="0 0 220 201" fill="none" xmlns="http://www.w3.org/2000/svg">
<path d="M158.123 52.8148C142.01 39.9508 120.199 52.8148 99.009 79.8854C77.8186 106.956 67.7426 95.5634 49.729 107.495C31.7154 119.426 26.8974 168.301 90.363 163.55C153.829 158.798 200.244 86.3978 158.123 52.8148Z" fill="#F0F0F0"/>
<path d="M147.919 132.945C141.121 128.608 139.581 120.556 139.85 113.316C139.894 112.11 139.749 110.831 140.378 109.774C141.007 108.717 142.477 107.989 143.66 108.496C144.641 108.918 145.068 109.963 145.618 110.827C146.352 111.979 147.428 112.917 148.72 113.533C149.561 113.935 150.603 114.176 151.435 113.758C152.579 113.183 152.711 111.748 152.702 110.542C152.702 108.299 152.688 106.058 152.658 103.821C152.579 102.619 152.713 101.413 153.054 100.251C153.463 99.1091 154.374 98.0518 155.619 97.7302C156.865 97.4086 158.418 98.0719 158.699 99.2458C158.748 99.7429 158.761 100.242 158.739 100.741C158.774 101.244 159.029 101.794 159.544 101.947C160.059 102.1 160.596 101.75 160.992 101.396C162.347 100.19 163.271 98.6186 164.129 97.0669C164.987 95.5152 165.827 93.9193 167.059 92.5967C168.291 91.2741 169.994 90.2249 171.899 90.1244C173.805 90.0239 175.789 91.0932 176.264 92.7816C176.739 94.47 175.661 96.1946 174.504 97.5654C172.758 99.6002 170.7 101.394 168.393 102.892C167.942 103.117 167.583 103.467 167.367 103.893C167.081 104.697 167.913 105.501 168.78 105.754C169.761 106.052 170.826 105.959 171.86 106.072C172.894 106.184 173.994 106.594 174.385 107.479C174.922 108.709 173.796 109.995 172.691 110.839C170.474 112.528 167.956 113.856 165.247 114.767C164.279 115.089 163.262 115.374 162.479 115.993C161.696 116.612 161.229 117.694 161.7 118.542C162.171 119.39 163.381 119.659 164.397 119.486C165.414 119.314 166.316 118.815 167.284 118.481C169.092 117.858 171.424 117.971 172.564 119.398C172.917 119.89 173.14 120.449 173.217 121.033C173.293 121.617 173.22 122.209 173.004 122.763C172.564 123.865 171.886 124.875 171.011 125.734C168.129 128.879 164.384 131.27 160.16 132.66C155.967 133.987 152.082 134.348 147.915 132.953" fill="#39374D"/>
<path d="M174.328 91.1173C174.328 91.1173 174.289 91.1575 174.201 91.2299L173.809 91.5475C173.466 91.8289 172.96 92.2389 172.322 92.7816C170.513 94.3161 168.833 95.973 167.297 97.7383C166.316 98.8518 165.3 100.114 164.217 101.485C163.135 102.856 162.017 104.335 160.908 105.907C159.726 107.564 158.644 109.279 157.666 111.044C157.155 111.965 156.706 112.926 156.244 113.907L154.88 116.902C153.082 120.674 151.517 124.535 150.19 128.467C149.121 131.684 148.385 134.986 147.99 138.328C147.734 140.584 147.693 142.856 147.867 145.118C147.937 145.922 148.003 146.537 148.065 146.955C148.091 147.156 148.109 147.317 148.126 147.433V147.598C148.107 147.546 148.094 147.492 148.087 147.438C148.065 147.321 148.038 147.164 148.003 146.963C147.924 146.561 147.84 145.926 147.761 145.122C147.549 142.856 147.564 140.576 147.805 138.312C148.176 134.955 148.896 131.638 149.957 128.407C151.272 124.464 152.834 120.593 154.634 116.813L156.033 113.83C156.495 112.853 156.948 111.885 157.463 110.96C158.448 109.19 159.54 107.471 160.732 105.81C161.859 104.202 162.994 102.747 164.063 101.388C165.132 100.03 166.166 98.7593 167.143 97.6498C168.695 95.8892 170.397 94.2439 172.234 92.7293C172.885 92.1947 173.404 91.7927 173.756 91.5233L174.166 91.2218C174.216 91.1819 174.27 91.1469 174.328 91.1173Z" fill="#263238"/>
<path d="M157.52 110.952C157.458 110.786 157.416 110.615 157.393 110.441C157.322 110.108 157.243 109.637 157.151 109.026C156.962 107.82 156.768 106.168 156.561 104.339C156.354 102.51 156.121 100.854 155.928 99.6598C155.826 99.0649 155.738 98.5865 155.677 98.2528C155.629 98.082 155.604 97.9065 155.602 97.7302C155.678 97.8913 155.732 98.0599 155.765 98.2327C155.862 98.5624 155.972 99.0367 156.095 99.6357C156.346 100.842 156.592 102.482 156.799 104.315C157.006 106.148 157.182 107.756 157.318 109.006C157.384 109.569 157.441 110.048 157.485 110.429C157.519 110.602 157.531 110.777 157.52 110.952Z" fill="#263238"/>
<path d="M174.452 108.066C174.238 108.108 174.019 108.132 173.8 108.138C173.36 108.174 172.736 108.222 171.961 108.303C170.412 108.456 168.283 108.737 165.946 109.139C163.61 109.541 161.511 109.995 160.002 110.345C159.25 110.522 158.642 110.683 158.242 110.791C158.028 110.861 157.807 110.909 157.582 110.936C157.785 110.843 157.997 110.766 158.216 110.707C158.629 110.574 159.228 110.389 159.976 110.192C161.476 109.79 163.575 109.312 165.92 108.902C167.907 108.555 169.911 108.3 171.926 108.138C172.705 108.078 173.334 108.054 173.774 108.046C174 108.031 174.227 108.038 174.452 108.066Z" fill="#263238"/>
<path d="M150.172 128.125C150.125 128.067 150.087 128.004 150.058 127.937L149.767 127.378C149.517 126.891 149.178 126.172 148.773 125.291C147.955 123.523 146.912 121.046 145.803 118.297C144.694 115.547 143.673 113.071 142.899 111.282C142.521 110.413 142.208 109.702 141.975 109.171L141.729 108.596C141.694 108.53 141.671 108.46 141.658 108.387C141.705 108.445 141.744 108.509 141.773 108.576L142.063 109.135C142.309 109.621 142.653 110.341 143.057 111.221C143.876 112.99 144.919 115.466 146.027 118.216C147.136 120.966 148.157 123.442 148.931 125.231C149.31 126.099 149.622 126.811 149.851 127.342C149.952 127.571 150.036 127.744 150.102 127.916C150.136 127.983 150.16 128.053 150.172 128.125Z" fill="#263238"/>
<path d="M172.648 121.505C172.577 121.541 172.502 121.57 172.423 121.589L171.772 121.79L169.365 122.501C167.332 123.104 164.525 123.965 161.445 124.913C158.365 125.862 155.545 126.706 153.499 127.269C152.478 127.555 151.646 127.772 151.07 127.916L150.406 128.073C150.328 128.096 150.249 128.11 150.168 128.117C150.238 128.08 150.314 128.052 150.392 128.033L151.044 127.832L153.45 127.12C155.483 126.517 158.29 125.657 161.37 124.708C164.45 123.76 167.266 122.916 169.312 122.353C170.338 122.067 171.165 121.85 171.746 121.706L172.41 121.549C172.487 121.526 172.567 121.511 172.648 121.505Z" fill="#263238"/>
<path d="M163.478 23.9914L161.212 24.731L160.239 22.0256C158.453 17.0368 152.759 14.3876 147.528 16.072C142.296 17.7563 139.511 23.2276 141.297 28.2164L142.27 30.9218L139.995 31.6655C139.128 31.9729 138.423 32.5739 138.028 33.3435C137.633 34.1132 137.578 34.9923 137.874 35.7981L144.179 53.4017C144.31 53.8006 144.528 54.1714 144.818 54.4921C145.109 54.8127 145.468 55.0767 145.872 55.2684C146.277 55.46 146.72 55.5753 147.174 55.6075C147.629 55.6398 148.086 55.5882 148.518 55.4559L172.001 47.7817C172.879 47.4749 173.594 46.8686 173.993 46.0903C174.393 45.3121 174.447 44.4226 174.143 43.609L167.834 26.0054C167.699 25.6076 167.479 25.2386 167.185 24.9204C166.891 24.6022 166.53 24.3413 166.124 24.1534C165.717 23.9654 165.273 23.8542 164.819 23.8263C164.364 23.7985 163.908 23.8546 163.478 23.9914ZM145.579 26.8054C145.097 25.5082 145.183 24.0911 145.82 22.8508C146.456 21.6106 147.593 20.6436 148.993 20.1523C149.684 19.9362 150.416 19.8496 151.144 19.8976C151.873 19.9455 152.583 20.127 153.233 20.4313C153.883 20.7356 154.46 21.1563 154.928 21.6685C155.396 22.1807 155.746 22.7738 155.958 23.4125L156.926 26.1179L146.547 29.5108L145.579 26.8054ZM158.779 42.4271L160.389 46.9214C160.419 47.0116 160.409 47.1086 160.362 47.1925C160.316 47.2763 160.235 47.3405 160.138 47.3717L157.881 48.1073C157.791 48.1301 157.695 48.1202 157.613 48.0797C157.531 48.0393 157.469 47.9714 157.441 47.8903L155.817 43.416C154.922 43.3714 154.063 43.0781 153.355 42.5752C152.648 42.0722 152.125 41.3838 151.857 40.602C151.475 39.5684 151.544 38.4397 152.052 37.4521C152.56 36.4645 153.466 35.6946 154.581 35.3036C155.131 35.1318 155.714 35.063 156.294 35.1013C156.875 35.1396 157.44 35.2842 157.958 35.5265C158.476 35.7688 158.935 36.1039 159.308 36.5118C159.681 36.9197 159.96 37.392 160.129 37.9006C160.412 38.6947 160.436 39.5471 160.197 40.3532C159.958 41.1594 159.466 41.8843 158.783 42.4391L158.779 42.4271Z" fill="#39374D"/>
<path d="M161.111 24.6828C161.111 24.7391 156.909 26.1823 151.681 27.8988C146.454 29.6154 142.191 30.9942 142.169 30.954C142.147 30.9138 146.371 29.4586 151.602 27.738C156.834 26.0175 161.089 24.6306 161.111 24.6828Z" fill="#263238"/>
<path d="M166.1 25.4225C166.12 25.4574 166.136 25.4937 166.149 25.531C166.184 25.6114 166.223 25.716 166.276 25.8446C166.391 26.1381 166.549 26.5441 166.747 27.0506L168.437 31.545C169.141 33.4504 169.981 35.7097 170.914 38.2182C171.354 39.4764 171.873 40.7869 172.357 42.1658C172.616 42.8763 172.728 43.6248 172.687 44.3728C172.65 44.7618 172.529 45.1402 172.331 45.4863C172.119 45.8312 171.837 46.1356 171.499 46.3828C170.819 46.8361 170.065 47.1876 169.264 47.424L166.998 48.1677L162.708 49.5706L155.443 51.9344L150.537 53.5102L149.217 53.9122L148.865 54.0167C148.828 54.032 148.788 54.0416 148.747 54.0449C148.747 54.0449 148.782 54.0449 148.857 53.9967L149.2 53.872L150.52 53.4178L155.399 51.7776L162.651 49.3656L166.932 47.9506L169.198 47.2029C169.976 46.9761 170.709 46.6353 171.367 46.1938C171.681 45.9645 171.944 45.682 172.141 45.3617C172.328 45.0416 172.44 44.69 172.471 44.3286C172.512 43.6078 172.404 42.8866 172.155 42.202C171.679 40.8352 171.178 39.5126 170.725 38.2543C169.809 35.7418 168.965 33.4746 168.296 31.5691C167.627 29.6636 167.064 28.132 166.677 27.0546C166.492 26.528 166.351 26.118 166.237 25.8205L166.131 25.4989C166.118 25.4745 166.107 25.4489 166.1 25.4225Z" fill="#263238"/>
<path d="M153.71 19.8789C153.71 19.8789 153.476 19.7744 153.045 19.6136C152.431 19.3978 151.781 19.2782 151.122 19.2598C150.147 19.2293 149.176 19.3968 148.28 19.7503C147.19 20.1904 146.259 20.9024 145.592 21.8045C144.92 22.704 144.56 23.7669 144.558 24.8557C144.567 25.748 144.715 26.6346 144.998 27.4888C145.226 28.2204 145.464 28.8033 145.622 29.2093C145.716 29.4156 145.792 29.6279 145.851 29.8445C145.726 29.6517 145.622 29.4484 145.539 29.2375C145.358 28.8355 145.099 28.2646 144.844 27.529C144.53 26.6658 144.36 25.7648 144.338 24.8557C144.326 23.7258 144.695 22.62 145.394 21.6879C146.084 20.7529 147.054 20.0189 148.188 19.5734C149.112 19.2179 150.113 19.0612 151.114 19.1151C151.786 19.1464 152.447 19.2894 153.063 19.5372C153.228 19.6067 153.387 19.6873 153.538 19.7784C153.601 19.8035 153.659 19.8374 153.71 19.8789Z" fill="#263238"/>
<path d="M153.912 35.6092C153.982 35.5703 154.056 35.5367 154.132 35.5087C154.352 35.4179 154.581 35.3439 154.814 35.2876C155.185 35.1876 155.568 35.1282 155.954 35.1107C156.479 35.0849 157.005 35.1574 157.498 35.3237C158.625 35.6855 159.659 36.7348 160.169 38.1377C160.414 38.8906 160.414 39.6923 160.169 40.4452C159.898 41.2624 159.411 42.0063 158.752 42.612L158.779 42.5035C159.364 43.9708 160.002 45.5627 160.662 47.2229L160.701 47.3234L160.591 47.3596L159.584 47.6651L157.384 48.3365L157.274 48.3686L157.239 48.2681C156.636 46.6039 155.976 45.0521 155.479 43.5286L155.575 43.5969C154.715 43.5316 153.895 43.2366 153.217 42.7487C152.604 42.317 152.1 41.7682 151.743 41.1407C151.42 40.5842 151.26 39.9612 151.277 39.3317C151.297 38.6883 151.473 38.0569 151.792 37.4829C152.11 36.9088 152.564 36.4062 153.12 36.0112C153.349 35.8414 153.606 35.7057 153.881 35.6092C153.633 35.7439 153.392 35.8901 153.16 36.0473C152.549 36.5196 152.081 37.1273 151.8 37.8121C151.559 38.3285 151.447 38.8873 151.47 39.4482C151.494 40.0091 151.653 40.5582 151.937 41.0563C152.288 41.66 152.779 42.1867 153.375 42.5999C154.022 43.0638 154.804 43.3434 155.624 43.4039H155.699L155.721 43.4642C156.205 44.9597 156.869 46.5235 157.481 48.1958L157.335 48.1315L159.535 47.4601L160.539 47.1506L160.468 47.2873C159.813 45.627 159.179 44.0311 158.598 42.5638V42.5035L158.651 42.4552C159.291 41.8747 159.768 41.1617 160.041 40.3769C160.275 39.6567 160.275 38.8901 160.041 38.1699C159.562 36.8192 158.572 35.7941 157.498 35.4323C157.023 35.2649 156.516 35.1869 156.007 35.2031C155.627 35.2111 155.249 35.2583 154.88 35.3438C154.225 35.4926 153.917 35.6293 153.912 35.6092Z" fill="#263238"/>
<path d="M140.312 151.683L96.3601 151.498C93.8219 151.485 91.393 150.552 89.6069 148.905C87.8208 147.257 86.8235 145.029 86.8341 142.71L87.3005 42.0452C87.3057 40.8963 87.5586 39.7596 88.0449 38.7001C88.5312 37.6405 89.2413 36.679 90.1345 35.8703C91.0278 35.0617 92.0868 34.4218 93.2509 33.9872C94.415 33.5527 95.6614 33.332 96.9189 33.3379L140.866 33.5228C143.404 33.5345 145.834 34.4661 147.62 36.113C149.407 37.7599 150.406 39.9875 150.396 42.3065L149.93 142.967C149.925 144.117 149.672 145.254 149.186 146.314C148.7 147.374 147.99 148.336 147.097 149.145C146.203 149.954 145.144 150.595 143.98 151.03C142.816 151.466 141.57 151.687 140.312 151.683Z" fill="#455A64"/>
<path d="M140.8 36.984H132.281C132.004 36.9887 131.729 37.0434 131.474 37.1449C131.22 37.2465 130.989 37.3929 130.796 37.5758C130.604 37.7588 130.452 37.9746 130.35 38.211C130.249 38.4475 130.199 38.6999 130.205 38.9538V40.3648C130.21 40.6186 130.16 40.8708 130.059 41.107C129.957 41.3432 129.806 41.5588 129.613 41.7414C129.42 41.924 129.189 42.07 128.934 42.1711C128.68 42.2722 128.406 42.3264 128.128 42.3306L111.522 42.2623C110.96 42.2486 110.428 42.0318 110.041 41.6594C109.654 41.2871 109.444 40.7896 109.459 40.2764V38.8654C109.473 38.3528 109.264 37.8559 108.878 37.4837C108.492 37.1115 107.96 36.8942 107.399 36.8795H104.403L96.945 36.8473C95.1711 36.8377 93.4653 37.4706 92.2011 38.6076C90.9369 39.7445 90.2173 41.2928 90.1998 42.9135L89.7598 141.17C89.7558 141.974 89.9251 142.771 90.2581 143.515C90.5912 144.26 91.0814 144.937 91.7008 145.508C92.3202 146.079 93.0566 146.533 93.8681 146.844C94.6796 147.155 95.5502 147.317 96.4302 147.321L140.289 147.506C141.17 147.51 142.043 147.355 142.858 147.05C143.673 146.746 144.415 146.298 145.04 145.731C145.666 145.165 146.163 144.492 146.504 143.75C146.844 143.008 147.022 142.212 147.026 141.408L147.466 43.1507C147.476 41.5255 146.78 39.9629 145.53 38.8065C144.28 37.6502 142.579 36.9946 140.8 36.984Z" fill="white"/>
<path d="M134.9 134.397L102.287 134.268C101.948 134.268 101.675 133.93 101.68 133.52L101.715 125.725C101.715 125.323 101.992 124.978 102.331 124.978L134.944 125.114C135.131 125.144 135.299 125.239 135.413 125.379C135.526 125.519 135.575 125.694 135.551 125.866L135.52 133.653C135.52 134.067 135.239 134.401 134.9 134.397Z" fill="#39374D"/>
<path d="M108.792 65.8678L97.4751 65.8209L97.4657 67.7183L108.782 67.7652L108.792 65.8678Z" fill="#39374D"/>
<path opacity="0.1" d="M108.792 65.8678L97.4751 65.8209L97.4657 67.7183L108.782 67.7652L108.792 65.8678Z" fill="black"/>
<path d="M141.966 77.5177C142.055 77.5094 142.142 77.4905 142.226 77.4614C142.347 77.4179 142.453 77.3439 142.531 77.2479C142.609 77.1519 142.656 77.0378 142.666 76.9187C142.666 76.2795 142.666 75.3469 142.666 74.1489C142.666 73.5499 142.666 72.8786 142.666 72.1389C142.666 71.958 142.666 71.7691 142.666 71.5801C142.694 71.3968 142.651 71.2101 142.542 71.0535C142.482 70.9784 142.403 70.9172 142.312 70.8746C142.221 70.8321 142.121 70.8094 142.019 70.8083H141.332H134.974L98.1729 70.6837C98.0787 70.6822 97.9855 70.7015 97.9012 70.74C97.817 70.7785 97.7441 70.835 97.6889 70.9048C97.5826 71.062 97.542 71.249 97.5745 71.4314C97.5745 71.8334 97.5745 72.2354 97.5745 72.6374C97.5745 73.4414 97.5745 74.2454 97.5745 75.0494C97.5745 75.4514 97.5745 75.8534 97.5745 76.2554C97.5562 76.4426 97.5562 76.6309 97.5745 76.8182C97.5976 76.8984 97.6405 76.9728 97.7 77.0355C97.7595 77.0982 97.834 77.1477 97.9177 77.18C98.0044 77.2115 98.0972 77.2266 98.1905 77.2242H100.43L110.202 77.2724L126.746 77.3649L137.9 77.4453L140.932 77.4775H141.72C141.9 77.4775 141.988 77.4775 141.988 77.4775H141.72H140.932H137.9H126.746L110.202 77.4292L100.43 77.393H98.1905C98.0672 77.3976 97.9443 77.3784 97.8297 77.3368C97.7138 77.2916 97.6108 77.2228 97.5284 77.1357C97.4461 77.0487 97.3866 76.9455 97.3545 76.8343C97.329 76.7287 97.3201 76.6205 97.3281 76.5127V76.2152C97.3281 75.8132 97.3281 75.4112 97.3281 75.0092C97.3281 74.2052 97.3281 73.4012 97.3281 72.5972C97.3281 72.1952 97.3281 71.7932 97.3281 71.3912C97.3197 71.2841 97.3197 71.1766 97.3281 71.0696C97.3446 70.9513 97.3946 70.8391 97.4733 70.744C97.5492 70.6469 97.6496 70.5681 97.7661 70.5142C97.8825 70.4603 98.0115 70.4329 98.1421 70.4344L134.944 70.6193L141.302 70.6595H141.988C142.109 70.6596 142.228 70.6863 142.335 70.7374C142.443 70.7885 142.535 70.8625 142.604 70.953C142.728 71.1278 142.778 71.3379 142.745 71.5439C142.745 71.7329 142.745 71.9218 142.745 72.1027C142.745 72.8344 142.745 73.5057 142.745 74.1127C142.745 75.3187 142.714 76.2433 142.705 76.8865C142.695 77.0102 142.645 77.1285 142.563 77.2275C142.482 77.3265 142.371 77.402 142.243 77.4453C142.16 77.4924 142.064 77.5175 141.966 77.5177Z" fill="#E0E0E0"/>
<path d="M121.572 72.7017H100.875V74.4745H121.572V72.7017Z" fill="#39374D"/>
<path opacity="0.2" d="M121.572 72.7017H100.875V74.4745H121.572V72.7017Z" fill="white"/>
<path d="M108.715 83.1774L97.3979 83.1305L97.3885 85.0279L108.705 85.0748L108.715 83.1774Z" fill="#39374D"/>
<path opacity="0.1" d="M108.715 83.1774L97.3979 83.1305L97.3885 85.0279L108.705 85.0748L108.715 83.1774Z" fill="black"/>
<path d="M141.68 94.8278C141.769 94.8178 141.857 94.803 141.944 94.7835C142.067 94.7478 142.18 94.6884 142.275 94.6094C142.371 94.5303 142.447 94.4334 142.498 94.3253C142.568 94.163 142.595 93.9882 142.577 93.8147C142.577 93.6218 142.577 93.4127 142.577 93.1796C142.577 92.7132 142.577 92.1826 142.577 91.5716V89.0189C142.598 88.8341 142.554 88.648 142.45 88.4882C142.341 88.3244 142.171 88.2028 141.97 88.1465C141.751 88.1108 141.528 88.1 141.306 88.1144H134.974L98.3003 87.9898C98.103 87.9902 97.9126 88.056 97.7645 88.1751C97.6164 88.2941 97.5207 88.4583 97.4951 88.637C97.4951 89.0189 97.4951 89.441 97.4951 89.843C97.4951 90.647 97.4951 91.451 97.4951 92.255C97.4951 92.657 97.4951 93.059 97.4951 93.461C97.4787 93.6488 97.4875 93.8379 97.5215 94.0238C97.5764 94.1868 97.6895 94.3283 97.8427 94.4258C98.0052 94.52 98.1961 94.565 98.3883 94.5544H98.9999H100.271L110.009 94.5986L126.495 94.6911L137.61 94.7715L140.633 94.8036H141.42H141.684H141.42H140.633H137.61H126.495L110 94.7876L100.263 94.7554H98.3487C98.1107 94.7683 97.8745 94.7105 97.6755 94.5906C97.4753 94.4639 97.3291 94.2778 97.2619 94.064C97.2224 93.8597 97.2106 93.6518 97.2267 93.4449C97.2267 93.0429 97.2267 92.6409 97.2267 92.2389C97.2267 91.4349 97.2267 90.6309 97.2267 89.8269C97.2267 89.4249 97.2267 89.0229 97.2267 88.6209C97.2588 88.391 97.3815 88.1797 97.5718 88.0266C97.7621 87.8734 98.007 87.7888 98.2607 87.7888L134.935 87.9737L141.266 88.0179C141.502 88.0047 141.739 88.0195 141.97 88.0621C142.199 88.1304 142.392 88.2736 142.511 88.4641C142.625 88.6412 142.675 88.8467 142.652 89.051C142.652 89.24 142.652 89.4249 142.652 89.6098C142.652 90.3374 142.652 91.0048 142.652 91.6198C142.652 92.2349 142.652 92.7534 142.652 93.2278C142.652 93.4569 142.652 93.67 142.652 93.867C142.668 94.0468 142.637 94.2274 142.56 94.3936C142.503 94.5045 142.42 94.6029 142.318 94.682C142.215 94.7611 142.095 94.819 141.966 94.8519C141.87 94.8591 141.773 94.851 141.68 94.8278Z" fill="#E0E0E0"/>
<path d="M108.629 101.239L97.3125 101.192L97.3031 103.089L108.62 103.136L108.629 101.239Z" fill="#39374D"/>
<path opacity="0.1" d="M108.629 101.239L97.3125 101.192L97.3031 103.089L108.62 103.136L108.629 101.239Z" fill="black"/>
<path d="M141.592 112.882C141.681 112.872 141.769 112.857 141.856 112.837C141.978 112.802 142.091 112.743 142.187 112.665C142.282 112.586 142.358 112.49 142.41 112.383C142.479 112.221 142.506 112.046 142.49 111.873C142.49 111.676 142.49 111.471 142.49 111.233C142.49 110.771 142.49 110.236 142.49 109.625V107.073C142.511 106.888 142.466 106.702 142.362 106.542C142.251 106.381 142.081 106.262 141.882 106.204C141.663 106.167 141.44 106.155 141.218 106.168H134.886L98.2123 106.044C98.0151 106.044 97.8247 106.11 97.6766 106.229C97.5285 106.348 97.4327 106.512 97.4071 106.691C97.4071 107.093 97.4071 107.495 97.4071 107.897C97.4071 108.701 97.4071 109.505 97.4071 110.309C97.4071 110.711 97.4071 111.113 97.4071 111.515C97.3907 111.701 97.3996 111.889 97.4335 112.074C97.4862 112.238 97.5998 112.38 97.7547 112.476C97.9162 112.572 98.1079 112.617 98.3003 112.604H100.214L109.952 112.652L126.438 112.745L137.553 112.825L140.576 112.857H141.363C141.539 112.857 141.627 112.857 141.627 112.857C141.627 112.857 141.539 112.857 141.363 112.857H140.576H137.553H126.438L109.952 112.813L100.214 112.777H98.3003C98.0621 112.792 97.8254 112.734 97.6271 112.612C97.4269 112.486 97.2808 112.3 97.2135 112.086C97.1741 111.881 97.1623 111.673 97.1783 111.467C97.1783 111.065 97.1783 110.663 97.1783 110.261C97.1783 109.457 97.1783 108.653 97.1783 107.849C97.1783 107.447 97.1783 107.045 97.1783 106.622C97.2094 106.393 97.3312 106.182 97.5208 106.028C97.7104 105.875 97.9548 105.791 98.2079 105.79L134.882 105.975L141.214 106.019C141.449 106.006 141.686 106.021 141.918 106.064C142.146 106.132 142.339 106.275 142.459 106.466C142.573 106.643 142.622 106.848 142.6 107.053C142.6 107.242 142.6 107.43 142.6 107.611C142.6 108.339 142.6 109.006 142.6 109.621C142.6 110.236 142.6 110.755 142.6 111.229C142.6 111.459 142.6 111.672 142.6 111.869C142.616 112.048 142.585 112.229 142.507 112.395C142.45 112.506 142.367 112.604 142.265 112.684C142.162 112.763 142.042 112.821 141.913 112.853C141.81 112.886 141.7 112.895 141.592 112.882Z" fill="#E0E0E0"/>
<path d="M121.13 90.513L100.433 90.4272L100.424 92.2L121.122 92.2858L121.13 90.513Z" fill="#39374D"/>
<path opacity="0.2" d="M121.13 90.513L100.433 90.4272L100.424 92.2L121.122 92.2858L121.13 90.513Z" fill="white"/>
<path d="M102.305 109.601C102.292 109.763 102.227 109.918 102.119 110.046C102.01 110.175 101.863 110.271 101.695 110.324C101.527 110.377 101.346 110.383 101.175 110.343C101.003 110.302 100.848 110.217 100.728 110.096C100.609 109.976 100.532 109.827 100.505 109.666C100.478 109.506 100.503 109.342 100.577 109.195C100.651 109.047 100.771 108.923 100.922 108.838C101.072 108.752 101.247 108.709 101.425 108.713C101.67 108.725 101.9 108.826 102.064 108.992C102.229 109.158 102.315 109.377 102.305 109.601Z" fill="#39374D"/>
<path d="M105.107 109.613C105.116 109.727 105.099 109.84 105.058 109.947C105.016 110.055 104.951 110.153 104.866 110.236C104.781 110.319 104.679 110.385 104.565 110.43C104.451 110.476 104.328 110.499 104.203 110.499C104.079 110.499 103.956 110.476 103.842 110.43C103.728 110.385 103.625 110.319 103.54 110.236C103.456 110.153 103.39 110.055 103.349 109.947C103.307 109.84 103.29 109.727 103.299 109.613C103.29 109.5 103.307 109.386 103.349 109.279C103.39 109.172 103.456 109.074 103.54 108.991C103.625 108.908 103.728 108.842 103.842 108.796C103.956 108.751 104.079 108.728 104.203 108.728C104.328 108.728 104.451 108.751 104.565 108.796C104.679 108.842 104.781 108.908 104.866 108.991C104.951 109.074 105.016 109.172 105.058 109.279C105.099 109.386 105.116 109.5 105.107 109.613Z" fill="#39374D"/>
<path d="M107.914 109.625C107.901 109.787 107.837 109.942 107.728 110.07C107.62 110.199 107.473 110.295 107.305 110.348C107.137 110.401 106.956 110.407 106.784 110.367C106.613 110.326 106.457 110.241 106.338 110.12C106.219 110 106.141 109.851 106.115 109.69C106.088 109.53 106.113 109.366 106.187 109.219C106.261 109.072 106.381 108.947 106.531 108.862C106.682 108.776 106.857 108.733 107.034 108.737C107.279 108.75 107.508 108.851 107.673 109.017C107.837 109.183 107.924 109.402 107.914 109.625Z" fill="#39374D"/>
<path d="M110.717 109.637C110.704 109.799 110.639 109.954 110.531 110.082C110.423 110.211 110.276 110.307 110.108 110.36C109.94 110.413 109.759 110.419 109.587 110.379C109.415 110.338 109.26 110.253 109.141 110.133C109.022 110.012 108.944 109.863 108.917 109.703C108.89 109.542 108.915 109.378 108.99 109.231C109.064 109.084 109.184 108.959 109.334 108.874C109.485 108.788 109.66 108.745 109.837 108.749C110.082 108.763 110.311 108.863 110.476 109.029C110.64 109.195 110.727 109.414 110.717 109.637Z" fill="#39374D"/>
<path d="M113.52 109.646C113.508 109.807 113.444 109.963 113.336 110.092C113.228 110.221 113.081 110.318 112.914 110.371C112.746 110.424 112.565 110.432 112.392 110.391C112.22 110.351 112.065 110.266 111.945 110.146C111.826 110.026 111.747 109.876 111.72 109.716C111.693 109.556 111.718 109.391 111.792 109.244C111.866 109.096 111.986 108.972 112.137 108.886C112.287 108.8 112.463 108.757 112.64 108.761C112.884 108.775 113.113 108.875 113.277 109.04C113.441 109.205 113.529 109.422 113.52 109.646Z" fill="#39374D"/>
<path d="M116.327 109.658C116.315 109.819 116.252 109.973 116.145 110.102C116.038 110.23 115.893 110.328 115.726 110.382C115.56 110.436 115.379 110.444 115.208 110.406C115.036 110.367 114.88 110.284 114.76 110.166C114.639 110.048 114.559 109.9 114.53 109.741C114.5 109.582 114.522 109.418 114.592 109.27C114.663 109.122 114.78 108.996 114.928 108.908C115.076 108.82 115.249 108.773 115.425 108.773C115.673 108.782 115.907 108.879 116.076 109.045C116.245 109.211 116.336 109.431 116.327 109.658Z" fill="#39374D"/>
<path d="M119.13 109.67C119.139 109.783 119.122 109.897 119.08 110.004C119.039 110.111 118.973 110.209 118.889 110.292C118.804 110.375 118.701 110.441 118.587 110.487C118.473 110.532 118.35 110.555 118.226 110.555C118.101 110.555 117.978 110.532 117.864 110.487C117.75 110.441 117.648 110.375 117.563 110.292C117.478 110.209 117.413 110.111 117.371 110.004C117.33 109.897 117.313 109.783 117.322 109.67C117.313 109.556 117.33 109.443 117.371 109.335C117.413 109.228 117.478 109.13 117.563 109.047C117.648 108.964 117.75 108.898 117.864 108.853C117.978 108.807 118.101 108.784 118.226 108.784C118.35 108.784 118.473 108.807 118.587 108.853C118.701 108.898 118.804 108.964 118.889 109.047C118.973 109.13 119.039 109.228 119.08 109.335C119.122 109.443 119.139 109.556 119.13 109.67Z" fill="#39374D"/>
<path d="M121.933 109.682C121.921 109.843 121.857 109.997 121.751 110.126C121.644 110.254 121.498 110.352 121.332 110.406C121.165 110.46 120.985 110.468 120.813 110.43C120.641 110.391 120.486 110.308 120.365 110.19C120.245 110.072 120.165 109.924 120.135 109.765C120.105 109.606 120.127 109.442 120.198 109.294C120.268 109.146 120.385 109.02 120.533 108.932C120.681 108.844 120.854 108.797 121.031 108.797C121.279 108.806 121.513 108.903 121.682 109.069C121.851 109.235 121.941 109.455 121.933 109.682Z" fill="#39374D"/>
<path d="M124.735 109.694C124.723 109.856 124.659 110.011 124.552 110.14C124.444 110.269 124.297 110.366 124.129 110.419C123.961 110.473 123.78 110.48 123.608 110.44C123.436 110.4 123.28 110.314 123.161 110.194C123.041 110.074 122.963 109.925 122.936 109.764C122.908 109.604 122.933 109.44 123.007 109.292C123.081 109.144 123.201 109.02 123.352 108.934C123.503 108.848 123.678 108.805 123.855 108.809C124.099 108.823 124.328 108.923 124.492 109.088C124.657 109.253 124.744 109.471 124.735 109.694Z" fill="#39374D"/>
<g opacity="0.2">
<path opacity="0.2" d="M102.305 109.601C102.292 109.763 102.227 109.918 102.119 110.046C102.01 110.175 101.863 110.271 101.695 110.324C101.527 110.377 101.346 110.383 101.175 110.343C101.003 110.302 100.848 110.217 100.728 110.096C100.609 109.976 100.532 109.827 100.505 109.666C100.478 109.506 100.503 109.342 100.577 109.195C100.651 109.047 100.771 108.923 100.922 108.838C101.072 108.752 101.247 108.709 101.425 108.713C101.67 108.725 101.9 108.826 102.064 108.992C102.229 109.158 102.315 109.377 102.305 109.601Z" fill="white"/>
<path opacity="0.2" d="M105.107 109.613C105.116 109.727 105.099 109.841 105.058 109.948C105.016 110.055 104.951 110.153 104.866 110.236C104.781 110.319 104.679 110.385 104.565 110.431C104.451 110.476 104.328 110.499 104.203 110.499C104.079 110.499 103.956 110.476 103.842 110.431C103.728 110.385 103.625 110.319 103.54 110.236C103.456 110.153 103.39 110.055 103.349 109.948C103.307 109.841 103.29 109.727 103.299 109.613C103.29 109.5 103.307 109.386 103.349 109.279C103.39 109.172 103.456 109.074 103.54 108.991C103.625 108.908 103.728 108.842 103.842 108.796C103.956 108.751 104.079 108.728 104.203 108.728C104.328 108.728 104.451 108.751 104.565 108.796C104.679 108.842 104.781 108.908 104.866 108.991C104.951 109.074 105.016 109.172 105.058 109.279C105.099 109.386 105.116 109.5 105.107 109.613Z" fill="white"/>
<path opacity="0.2" d="M107.914 109.626C107.901 109.787 107.837 109.942 107.728 110.07C107.62 110.199 107.473 110.295 107.305 110.348C107.137 110.401 106.956 110.407 106.784 110.367C106.613 110.327 106.457 110.241 106.338 110.121C106.219 110 106.141 109.851 106.115 109.691C106.088 109.53 106.113 109.366 106.187 109.219C106.261 109.072 106.381 108.948 106.531 108.862C106.682 108.776 106.857 108.733 107.034 108.737C107.279 108.751 107.508 108.851 107.673 109.017C107.837 109.183 107.924 109.402 107.914 109.626Z" fill="white"/>
<path opacity="0.2" d="M110.717 109.638C110.704 109.799 110.639 109.954 110.531 110.083C110.423 110.211 110.276 110.308 110.108 110.36C109.94 110.413 109.759 110.42 109.587 110.379C109.415 110.339 109.26 110.253 109.141 110.133C109.022 110.013 108.944 109.863 108.917 109.703C108.89 109.543 108.915 109.379 108.99 109.231C109.064 109.084 109.184 108.96 109.334 108.874C109.485 108.788 109.66 108.745 109.837 108.749C110.082 108.763 110.311 108.863 110.476 109.029C110.64 109.196 110.727 109.414 110.717 109.638Z" fill="white"/>
<path opacity="0.2" d="M113.52 109.646C113.508 109.808 113.444 109.963 113.336 110.092C113.228 110.221 113.081 110.318 112.914 110.371C112.746 110.425 112.565 110.432 112.392 110.392C112.22 110.352 112.065 110.266 111.945 110.146C111.826 110.026 111.747 109.877 111.72 109.716C111.693 109.556 111.718 109.392 111.792 109.244C111.866 109.097 111.986 108.972 112.137 108.886C112.287 108.801 112.463 108.757 112.64 108.761C112.884 108.775 113.113 108.875 113.277 109.04C113.441 109.205 113.529 109.423 113.52 109.646Z" fill="white"/>
<path opacity="0.2" d="M116.327 109.658C116.315 109.819 116.252 109.973 116.145 110.102C116.038 110.231 115.893 110.328 115.726 110.382C115.56 110.436 115.379 110.444 115.208 110.406C115.036 110.368 114.88 110.284 114.76 110.166C114.639 110.048 114.559 109.9 114.53 109.741C114.5 109.582 114.522 109.418 114.592 109.27C114.663 109.122 114.78 108.997 114.928 108.908C115.076 108.82 115.249 108.773 115.425 108.774C115.673 108.782 115.907 108.88 116.076 109.046C116.245 109.211 116.336 109.432 116.327 109.658Z" fill="white"/>
<path opacity="0.2" d="M119.13 109.67C119.139 109.783 119.122 109.897 119.08 110.004C119.039 110.111 118.973 110.21 118.889 110.293C118.804 110.376 118.701 110.442 118.587 110.487C118.473 110.533 118.35 110.556 118.226 110.556C118.101 110.556 117.978 110.533 117.864 110.487C117.75 110.442 117.648 110.376 117.563 110.293C117.478 110.21 117.413 110.111 117.371 110.004C117.33 109.897 117.313 109.783 117.322 109.67C117.313 109.557 117.33 109.443 117.371 109.336C117.413 109.229 117.478 109.131 117.563 109.048C117.648 108.965 117.75 108.898 117.864 108.853C117.978 108.808 118.101 108.784 118.226 108.784C118.35 108.784 118.473 108.808 118.587 108.853C118.701 108.898 118.804 108.965 118.889 109.048C118.973 109.131 119.039 109.229 119.08 109.336C119.122 109.443 119.139 109.557 119.13 109.67Z" fill="white"/>
<path opacity="0.2" d="M121.933 109.682C121.921 109.843 121.857 109.998 121.751 110.126C121.644 110.255 121.498 110.352 121.332 110.406C121.165 110.46 120.985 110.469 120.813 110.43C120.641 110.392 120.486 110.309 120.365 110.191C120.245 110.072 120.165 109.925 120.135 109.765C120.105 109.606 120.127 109.443 120.198 109.295C120.268 109.147 120.385 109.021 120.533 108.933C120.681 108.844 120.854 108.797 121.031 108.798C121.279 108.806 121.513 108.904 121.682 109.07C121.851 109.236 121.941 109.456 121.933 109.682Z" fill="white"/>
<path opacity="0.2" d="M124.736 109.694C124.723 109.856 124.659 110.011 124.552 110.14C124.444 110.269 124.297 110.367 124.129 110.42C123.961 110.473 123.78 110.48 123.608 110.44C123.436 110.4 123.28 110.315 123.161 110.195C123.041 110.075 122.963 109.925 122.936 109.765C122.908 109.604 122.933 109.44 123.007 109.293C123.081 109.145 123.201 109.021 123.352 108.935C123.503 108.849 123.678 108.806 123.855 108.81C124.099 108.824 124.328 108.924 124.492 109.089C124.657 109.254 124.744 109.471 124.736 109.694Z" fill="white"/>
</g>
<path d="M120.754 51.661C121.059 51.538 121.319 51.3357 121.499 51.0791C121.68 50.8225 121.774 50.523 121.77 50.2178C121.781 50.0195 121.749 49.8211 121.673 49.6348C121.598 49.4484 121.482 49.278 121.332 49.134C121.183 48.9899 121.003 48.8751 120.803 48.7967C120.603 48.7183 120.388 48.6779 120.171 48.6779C119.953 48.6779 119.738 48.7183 119.538 48.7967C119.339 48.8751 119.158 48.9899 119.009 49.134C118.859 49.278 118.743 49.4484 118.668 49.6348C118.593 49.8211 118.56 50.0195 118.571 50.2178C118.565 50.526 118.658 50.8291 118.84 51.0888C119.021 51.3485 119.283 51.5532 119.592 51.6771C117.128 52.0148 117.238 54.4589 117.238 54.4589L123.064 54.4831C123.064 54.4831 123.2 51.9947 120.754 51.661Z" fill="#39374D"/>
<path opacity="0.1" d="M120.754 51.661C121.059 51.538 121.319 51.3357 121.499 51.0791C121.68 50.8225 121.774 50.523 121.77 50.2178C121.781 50.0195 121.749 49.8211 121.673 49.6348C121.598 49.4484 121.482 49.278 121.332 49.134C121.183 48.9899 121.003 48.8751 120.803 48.7967C120.603 48.7183 120.388 48.6779 120.171 48.6779C119.953 48.6779 119.738 48.7183 119.538 48.7967C119.339 48.8751 119.158 48.9899 119.009 49.134C118.859 49.278 118.743 49.4484 118.668 49.6348C118.593 49.8211 118.56 50.0195 118.571 50.2178C118.565 50.526 118.658 50.8291 118.84 51.0888C119.021 51.3485 119.283 51.5532 119.592 51.6771C117.128 52.0148 117.238 54.4589 117.238 54.4589L123.064 54.4831C123.064 54.4831 123.2 51.9947 120.754 51.661Z" fill="black"/>
<path d="M130.22 56.0595L109.457 55.9734L109.445 58.2406L130.209 58.3267L130.22 56.0595Z" fill="#39374D"/>
<path opacity="0.2" d="M130.22 56.0595L109.457 55.9734L109.445 58.2406L130.209 58.3267L130.22 56.0595Z" fill="white"/>
<path d="M75.3058 180.233V176.796L68.5606 176.751L68.5034 181.949L68.9214 181.977C70.7826 182.086 78.3902 182.247 79.6398 181.893C81.0302 181.499 75.3058 180.233 75.3058 180.233Z" fill="#39374D"/>
<path d="M79.7982 181.571C79.7982 181.628 77.2726 181.676 74.1618 181.676C71.051 181.676 68.5254 181.628 68.5254 181.571C68.5254 181.515 71.051 181.467 74.1618 181.467C77.2726 181.467 79.7982 181.515 79.7982 181.571Z" fill="#263238"/>
<path d="M75.4244 180.936C75.3672 180.908 75.4244 180.727 75.5608 180.534C75.6972 180.341 75.882 180.261 75.926 180.301C75.97 180.341 75.8776 180.494 75.7456 180.659C75.6136 180.824 75.4816 180.964 75.4244 180.936Z" fill="#263238"/>
<path d="M75.8562 181.161C75.7946 181.161 75.8254 180.936 75.9574 180.723C76.0894 180.51 76.2654 180.381 76.3138 180.414C76.3622 180.446 76.283 180.627 76.1598 180.816C76.0366 181.005 75.9134 181.181 75.8562 181.161Z" fill="#263238"/>
<path d="M70.558 181.555C70.5316 181.555 70.4304 181.483 70.2852 181.33C70.108 181.134 69.9106 180.953 69.6956 180.791C69.4843 180.637 69.2325 180.536 68.9652 180.498C68.7584 180.474 68.6264 180.498 68.6132 180.474C68.6 180.45 68.7276 180.365 68.9696 180.349C69.289 180.343 69.6006 180.44 69.8496 180.623C70.083 180.796 70.2798 181.008 70.4304 181.246C70.5316 181.423 70.5844 181.539 70.558 181.555Z" fill="#263238"/>
<path d="M75.4465 180.289C75.4773 180.337 75.3629 180.458 75.1693 180.522C74.9757 180.586 74.8041 180.562 74.7953 180.522C74.7865 180.482 74.9229 180.397 75.0901 180.341C75.2573 180.285 75.4113 180.241 75.4465 180.289Z" fill="#263238"/>
<path d="M75.3409 179.955C75.3409 180.016 75.1649 180.064 74.9361 180.068C74.7073 180.072 74.5269 180.024 74.5313 179.967C74.5357 179.911 74.7161 179.859 74.9361 179.855C75.1561 179.851 75.3321 179.899 75.3409 179.955Z" fill="#263238"/>
<path d="M91.9162 180.233V176.796L85.171 176.751L85.1138 181.897L85.5318 181.925C87.393 182.034 95.005 182.247 96.2502 181.893C97.6406 181.499 91.9162 180.233 91.9162 180.233Z" fill="#39374D"/>
<path d="M96.4085 181.579C96.4085 181.636 93.8873 181.684 90.7721 181.684C87.6569 181.684 85.1401 181.636 85.1401 181.579C85.1401 181.523 87.6613 181.475 90.7721 181.475C93.8829 181.475 96.4085 181.523 96.4085 181.579Z" fill="#263238"/>
<path d="M92.0348 180.936C91.982 180.908 92.0348 180.727 92.1712 180.534C92.3076 180.341 92.4924 180.261 92.5364 180.301C92.5804 180.341 92.488 180.494 92.356 180.659C92.224 180.824 92.092 180.964 92.0348 180.936Z" fill="#263238"/>
<path d="M92.4659 181.161C92.4087 181.161 92.4351 180.936 92.5715 180.723C92.7079 180.51 92.8795 180.381 92.9279 180.414C92.9763 180.446 92.8927 180.627 92.7695 180.816C92.6463 181.005 92.5275 181.181 92.4659 181.161Z" fill="#263238"/>
<path d="M87.1684 181.555C87.142 181.555 87.0452 181.483 86.8956 181.33C86.7183 181.134 86.5209 180.953 86.306 180.791C86.0946 180.637 85.8429 180.536 85.5756 180.498C85.3732 180.474 85.2368 180.498 85.2236 180.474C85.2104 180.45 85.338 180.365 85.58 180.349C85.8994 180.343 86.2109 180.44 86.46 180.623C86.6946 180.795 86.8916 181.007 87.0408 181.246C87.142 181.423 87.1948 181.539 87.1684 181.555Z" fill="#263238"/>
<path d="M92.0569 180.289C92.0877 180.337 91.9733 180.458 91.7797 180.522C91.5861 180.586 91.4145 180.562 91.4057 180.522C91.3969 180.482 91.5333 180.397 91.7005 180.341C91.8677 180.285 92.0217 180.241 92.0569 180.289Z" fill="#263238"/>
<path d="M91.9601 179.955C91.9601 180.016 91.7841 180.064 91.5553 180.068C91.3265 180.072 91.1505 180.024 91.1549 179.967C91.1593 179.911 91.3353 179.859 91.5553 179.855C91.7753 179.851 91.9601 179.899 91.9601 179.955Z" fill="#263238"/>
<path d="M116.767 78.1649C116.591 78.0001 116.156 78.0805 116.156 78.0805C116.199 77.849 116.199 77.6124 116.156 77.381C116.076 77.1559 115.522 77.2001 115.522 77.2001C115.496 77.0105 115.496 76.8188 115.522 76.6292C115.526 76.5872 115.516 76.545 115.494 76.5083C115.471 76.4716 115.436 76.4422 115.394 76.4242C115.132 76.3265 114.85 76.2799 114.567 76.2875C114.228 76.0664 115.601 74.3097 116.112 73.7469C116.622 73.1841 116.53 72.7459 116.076 72.7459C115.764 72.7459 114.162 74.4343 113.67 75.0011C113.177 75.568 111.87 77.1438 111.826 75.8855C111.782 74.6273 111.228 73.6786 110.88 73.5178C110.532 73.357 110.163 73.7348 110.352 74.0846C110.518 74.4819 110.622 74.8988 110.66 75.3227C110.708 75.6604 110.691 76.0032 110.612 76.3358C110.466 76.9547 110.267 77.5622 110.018 78.1528H109.982C109.982 78.1528 100.382 86.5667 99.6863 87.1657C99.0659 87.7043 86.5875 86.5265 84.0839 86.2853C83.2332 86.1715 82.3741 86.1178 81.5143 86.1245C80.4275 86.1687 80.2339 86.3094 79.1515 86.3215C76.418 86.3492 73.6908 86.5682 70.9939 86.9767C69.7728 87.1664 68.6321 87.6589 67.6963 88.4004C66.7606 89.1419 66.0657 90.104 65.6875 91.1816C63.1663 98.3774 57.4551 115.41 56.4475 124.978C55.6861 126.239 54.9988 127.537 54.3883 128.865C53.6799 130.626 53.8515 130.686 54.0891 130.726C54.7315 130.835 55.4619 127.675 55.7347 128.439C56.0075 129.203 54.3487 132.206 55.0219 132.294C55.9019 132.407 56.6015 129.078 56.6851 128.813C56.7687 128.548 57.2043 128.632 57.1251 128.881C56.9975 129.235 55.7611 132.986 56.6235 133.106C57.0987 133.171 57.1515 132.379 57.1515 132.379C57.1515 132.379 58.0315 128.789 58.4319 128.861C58.8323 128.933 58.4055 131.052 58.2031 131.76C58.0007 132.467 58.2823 132.825 58.6959 132.652C58.9775 132.531 59.6507 130.381 59.8355 129.681C60.0203 128.982 60.4823 127.044 61.1027 128.166C61.7231 129.287 62.6647 129.938 63.0519 129.955C63.1392 129.945 63.2214 129.913 63.2881 129.86C63.3547 129.808 63.4027 129.739 63.4259 129.661C63.4491 129.584 63.4464 129.502 63.4182 129.426C63.39 129.35 63.3375 129.283 63.2675 129.235C62.9345 128.938 62.6486 128.6 62.4183 128.23C62.2131 127.942 62.0642 127.624 61.9783 127.289C61.801 126.622 61.6978 125.941 61.6703 125.255L61.5999 124.853C62.5855 120.395 65.4235 107.31 69.5199 98.9523L71.2007 102.112L71.9311 104.452L67.4519 114.554L86.5567 114.325L83.7055 104.299L87.1683 93.8469C90.9127 93.9233 100.527 94.0519 102.128 93.3886C104.144 92.5846 114.567 80.5568 114.567 80.5568C115.247 80.0744 115.897 79.5591 116.516 79.0131C116.516 79.0131 117.15 78.5267 116.767 78.1649Z" fill="#FFBE9D"/>
<path d="M66.6114 107.089C67.1658 105.36 70.0126 96.8137 70.0126 96.8137C70.0126 96.8137 71.4118 103.78 71.0422 104.621C70.7022 105.34 70.3006 106.033 69.841 106.695C66.6114 111.185 67.0338 113.432 67.0338 113.432L86.5478 112.89C86.5918 110.397 84.977 104.6 84.6426 103.676C84.3082 102.751 85.4214 99.7241 85.4214 99.7241C85.4214 99.7241 87.6214 97.678 87.5422 96.6247C87.5004 95.6786 87.3724 94.7374 87.1594 93.8107L99.0394 94.2127L98.6654 86.8561L81.6022 85.2964C81.0082 86.828 75.6358 86.0762 75.6358 86.0762C69.8366 86.2531 69.4758 87.226 67.0646 88.9385C64.6534 90.651 60.6626 105.348 60.6626 105.348L66.6114 107.089Z" fill="#39374D"/>
<path d="M78.1483 105.348C77.8101 105.403 77.4657 105.42 77.1231 105.396C76.4851 105.396 75.6095 105.356 74.6459 105.268C73.6823 105.179 72.8111 105.055 72.1907 104.942C71.8486 104.902 71.5132 104.824 71.1919 104.709C71.5359 104.709 71.8791 104.739 72.2171 104.797C72.8419 104.87 73.7087 104.97 74.6679 105.059C75.6271 105.147 76.4983 105.207 77.1275 105.248C77.4705 105.252 77.8123 105.285 78.1483 105.348Z" fill="#263238"/>
<path d="M79.486 103.833C79.1477 103.984 78.79 104.096 78.4212 104.166C76.6657 104.588 74.8546 104.784 73.04 104.749C72.6645 104.76 72.2889 104.728 71.9224 104.653C72.293 104.61 72.6665 104.592 73.04 104.6C73.7308 104.58 74.6812 104.536 75.7284 104.424C76.7756 104.311 77.7084 104.15 78.3684 104.022C78.735 103.932 79.1086 103.869 79.486 103.833Z" fill="#263238"/>
<path d="M86.0508 97.0709C86.0419 97.3774 85.9962 97.6821 85.9144 97.9795C85.8 98.5382 85.624 99.302 85.3996 100.138C85.1752 100.974 84.9596 101.746 84.766 102.269C84.6882 102.568 84.5731 102.858 84.4229 103.133C84.4474 102.828 84.5094 102.526 84.6076 102.233C84.7748 101.605 84.9641 100.882 85.1753 100.09C85.3865 99.298 85.5888 98.5744 85.756 97.9473C85.8156 97.6455 85.9146 97.3512 86.0508 97.0709Z" fill="#263238"/>
<path d="M66.8184 106.064C65.8005 105.92 64.7959 105.706 63.8132 105.424C62.8091 105.21 61.8237 104.928 60.8652 104.58C61.8827 104.726 62.8871 104.94 63.8704 105.219C64.8748 105.433 65.8602 105.715 66.8184 106.064Z" fill="#263238"/>
<path d="M87.3705 93.7223C87.2046 93.7484 87.0349 93.7484 86.8689 93.7223C86.4093 93.6792 85.9581 93.5805 85.5269 93.4288C84.8072 93.1817 84.1519 92.7998 83.6033 92.3075C83.0547 91.8153 82.6248 91.2236 82.3413 90.5706C82.028 89.8522 81.8942 89.079 81.9497 88.3073C81.9694 87.6709 82.1777 87.0512 82.5525 86.5144C82.8162 86.1528 83.21 85.8869 83.6657 85.7627C83.7875 85.732 83.9134 85.7171 84.0397 85.7185C84.1277 85.7185 84.1717 85.7185 84.1717 85.7185C84.1717 85.7185 83.9869 85.7185 83.6921 85.827C83.274 85.9681 82.9194 86.2327 82.6845 86.5787C82.0861 87.439 81.9189 89.0108 82.5569 90.4781C82.8539 91.17 83.3187 91.7912 83.9165 92.2952C84.4064 92.7075 84.9705 93.0394 85.5841 93.2761C86.16 93.484 86.759 93.6336 87.3705 93.7223Z" fill="#263238"/>
<path d="M97.6273 94.068C97.5172 92.8353 97.4819 91.5979 97.5216 90.3616C97.4872 89.1263 97.5283 87.8902 97.6449 86.6591C97.755 87.8905 97.7903 89.1266 97.7505 90.3616C97.7874 91.5982 97.7463 92.8357 97.6273 94.068Z" fill="#263238"/>
<path d="M81.4881 85.7466C81.5365 84.8501 81.6377 83.8371 81.6377 83.8371C81.6377 83.8371 84.0665 83.5919 84.2117 81.3005C84.3569 79.0091 84.2117 73.7228 84.2117 73.7228L79.8117 71.6645L74.9277 75.174L75.6801 86.631L80.1593 86.8923C80.5017 86.901 80.8339 86.7852 81.083 86.5704C81.3321 86.3557 81.4778 86.0594 81.4881 85.7466Z" fill="#FFBE9D"/>
<path d="M81.9234 79.4875C81.9234 79.4875 81.9234 79.5317 81.8838 79.5839C81.8511 79.6219 81.8087 79.6519 81.7604 79.6715C81.7121 79.6911 81.6593 79.6997 81.6066 79.6965C81.325 79.6965 81.0522 79.399 80.9554 79.0533C80.9094 78.8857 80.9094 78.7103 80.9554 78.5428C80.9644 78.4696 80.9933 78.3997 81.0394 78.3393C81.0855 78.2789 81.1474 78.23 81.2194 78.197C81.2786 78.1747 81.345 78.1747 81.4042 78.197C81.4481 78.2169 81.4836 78.2494 81.5054 78.2895C81.5362 78.3578 81.5054 78.4021 81.5054 78.398C81.5054 78.394 81.5054 78.3578 81.4614 78.3176C81.4384 78.2888 81.4046 78.2688 81.3664 78.2614C81.3283 78.254 81.2884 78.2597 81.2546 78.2774C81.2006 78.3073 81.1558 78.3491 81.1242 78.399C81.0927 78.4489 81.0755 78.5052 81.0742 78.5629C81.0372 78.7124 81.0372 78.8676 81.0742 79.0171C81.1622 79.3307 81.3998 79.5839 81.611 79.6081C81.6523 79.6132 81.6944 79.6105 81.7345 79.6001C81.7746 79.5897 81.8119 79.5719 81.8442 79.5478C81.897 79.5156 81.9146 79.4834 81.9234 79.4875Z" fill="#EB996E"/>
<path d="M85.7208 72.4846C85.382 71.4314 84.1544 70.9088 83.0368 70.6193C81.334 70.1771 79.4948 69.9842 77.8316 70.543C76.1684 71.1017 74.1708 72.0826 74.1708 73.759C73.1896 73.6866 72.6264 74.4705 72.2392 75.4433C71.9916 76.036 71.8433 76.6594 71.7992 77.2925C71.676 79.4875 71.0028 82.5185 69.4452 84.1265C68.5652 85.023 67.3464 85.6421 66.8448 86.7596C66.4048 87.7285 66.6336 88.8782 66.2244 89.8591C65.8592 90.7234 65.054 91.3384 64.4644 92.0902C63.8637 92.943 63.5102 93.9213 63.4371 94.9332C63.364 95.9451 63.5736 96.9574 64.0464 97.8749C64.5225 98.769 65.1929 99.565 66.0167 100.215C66.8405 100.864 67.8004 101.354 68.838 101.654C70.8932 102.225 73.0849 102.245 75.152 101.71C76.7033 101.371 78.1505 100.716 79.3848 99.7925C80.6477 98.8502 81.5152 97.5379 81.84 96.078C82.1524 94.4378 81.6508 92.7695 81.2768 91.1374C80.1064 85.9798 80.4408 85.7104 81.9192 80.9226C81.9544 80.8382 81.972 80.7497 81.9984 80.6653C82.0248 80.5809 82.038 80.5407 82.0556 80.4764C82.0976 80.2871 82.1197 80.0946 82.1216 79.9015C81.9056 79.9749 81.6713 79.9904 81.446 79.9463C81.2207 79.9021 81.014 79.8001 80.85 79.6523C80.6856 79.4947 80.571 79.2993 80.5183 79.087C80.4656 78.8747 80.4769 78.6533 80.5508 78.4463C80.6546 78.2199 80.8093 78.016 81.0048 77.8477C81.2004 77.6794 81.4324 77.5506 81.686 77.4694C82.1744 77.2845 82.698 77.188 83.1776 76.983C84.194 76.5408 84.898 75.6242 85.3776 74.6635C85.7719 73.9976 85.8936 73.2251 85.7208 72.4846Z" fill="#263238"/>
<path d="M82.0996 79.596C82.1926 79.7215 82.2694 79.8564 82.3284 79.998C82.4604 80.2513 82.6364 80.609 82.83 81.0231L82.8652 81.0995H82.7728L82.3328 81.1357C82.0292 81.1357 81.774 81.1879 81.4748 81.1839C81.4488 81.1785 81.4246 81.1673 81.4046 81.1511C81.3846 81.1349 81.3694 81.1144 81.3604 81.0914C81.3473 81.0549 81.3473 81.0154 81.3604 80.9789C81.3706 80.9247 81.3838 80.871 81.4 80.8181L81.4792 80.5327C81.519 80.3423 81.581 80.1563 81.664 79.9779C81.6558 80.172 81.6248 80.3647 81.5716 80.5528L81.51 80.8382C81.488 80.9347 81.4484 81.0834 81.51 81.0713C81.73 81.0713 82.0424 81.0271 82.3328 81.011L82.7728 80.9749L82.7156 81.0633C82.5264 80.6613 82.368 80.2834 82.2756 80.0221C82.1946 79.8887 82.1353 79.7451 82.0996 79.596Z" fill="#39374D"/>
<path d="M67.0341 113.432L86.5481 112.89L95.0401 143.176L93.4781 177.917H83.1601L84.4229 143.916L76.8769 122.831L78.0385 179.264L67.6105 179.405L66.5149 126.361C66.4665 124.885 65.9385 121.561 66.1365 120.098L67.0341 113.432Z" fill="#263238"/>
<path d="M79.4727 123.261C79.1533 123.28 78.8327 123.262 78.5179 123.209C77.9283 123.145 77.1232 123.032 76.2388 122.871C75.3544 122.711 74.5624 122.526 73.9904 122.377C73.6846 122.315 73.3888 122.218 73.1104 122.087C73.1104 122.027 74.5447 122.341 76.3047 122.666C78.0647 122.992 79.4815 123.201 79.4727 123.261Z" fill="#455A64"/>
<path d="M93.3724 176.012C93.3724 176.068 91.036 176.116 88.154 176.116C85.272 176.116 82.9312 176.068 82.9312 176.012C82.9312 175.955 85.2676 175.907 88.154 175.907C91.0404 175.907 93.3724 175.951 93.3724 176.012Z" fill="#455A64"/>
<path d="M77.9457 177.797C77.9457 177.857 75.6753 177.901 72.8769 177.901C70.0785 177.901 67.8125 177.857 67.8125 177.797C67.8125 177.736 70.0829 177.692 72.8769 177.692C75.6709 177.692 77.9457 177.74 77.9457 177.797Z" fill="#455A64"/>
<path d="M76.5996 177.652C76.538 177.652 76.2652 165.322 75.9879 150.115C75.7107 134.907 75.5479 122.57 75.6051 122.57C75.6623 122.57 75.944 134.895 76.2168 150.111C76.4896 165.327 76.6656 177.652 76.5996 177.652Z" fill="#455A64"/>
<path d="M91.9863 176.012C91.9815 175.957 91.9815 175.902 91.9863 175.847V175.364C91.9863 174.93 92.0215 174.307 92.0479 173.515C92.1095 171.907 92.1975 169.572 92.3075 166.709C92.5451 160.953 92.8795 153.017 93.2447 144.258C93.2447 144.173 93.2447 144.093 93.2447 144.021V144.049C90.9347 135.607 88.8447 127.945 87.3267 122.401L85.5667 115.844C85.3643 115.077 85.2103 114.478 85.1003 114.059C85.0475 113.862 85.0123 113.71 84.9815 113.593C84.9643 113.541 84.954 113.487 84.9507 113.432C84.9735 113.483 84.9912 113.535 85.0035 113.589C85.0387 113.702 85.0827 113.854 85.1443 114.047C85.2631 114.449 85.4347 115.06 85.6547 115.824C86.0947 117.376 86.7151 119.611 87.4895 122.365C89.0207 127.904 91.1327 135.546 93.4735 144V144.029C93.4735 144.101 93.4735 144.185 93.4735 144.266C93.0819 153.025 92.7255 160.957 92.4659 166.713C92.3295 169.58 92.2151 171.899 92.1359 173.515C92.0919 174.319 92.0567 174.93 92.0347 175.364C92.0347 175.569 92.0083 175.73 92.0039 175.847C92.0045 175.902 91.9986 175.957 91.9863 176.012Z" fill="#455A64"/>
<path d="M88.6206 143.313C87.8795 143.536 87.116 143.69 86.3414 143.775C85.391 143.924 84.5814 144.029 84.2162 144.045V143.964C84.335 143.996 84.3966 144.016 84.3966 144.033C84.3966 144.049 84.3218 144.033 84.1986 144.033H83.9346L84.1986 143.96C84.5418 143.868 85.3514 143.715 86.3018 143.558C87.064 143.407 87.8407 143.325 88.6206 143.313Z" fill="#455A64"/>
<path d="M88.4397 144.467C87.7533 144.495 87.0656 144.467 86.3849 144.382C85.6976 144.369 85.0129 144.301 84.3389 144.177C85.714 144.075 87.0981 144.172 88.4397 144.467Z" fill="#455A64"/>
<path opacity="0.2" d="M66.9502 114.072C67.1813 114.343 67.4724 114.566 67.8045 114.728C68.1365 114.889 68.5021 114.985 68.8774 115.008C69.6633 115.093 70.4583 115.08 71.2402 114.968C76.2782 114.457 81.6154 113.987 86.5478 112.89C80.1634 113.215 73.4182 113.107 67.0338 113.432L66.9678 113.931" fill="black"/>
<g opacity="0.2">
<path opacity="0.2" d="M73.5283 122.292L77.1275 135.052L76.8767 122.831L73.5283 122.292Z" fill="black"/>
</g>
</svg>
