<svg width="288" height="171" viewBox="0 0 288 171" fill="none" xmlns="http://www.w3.org/2000/svg">
<g clip-path="url(#clip0)">
<path d="M23.8423 37.0993C32.0392 37.0993 38.6841 30.5872 38.6841 22.5542C38.6841 14.5212 32.0392 8.00914 23.8423 8.00914C15.6454 8.00914 9.00049 14.5212 9.00049 22.5542C9.00049 30.5872 15.6454 37.0993 23.8423 37.0993Z" fill="#FF6584"/>
<path d="M143.257 171C222.375 171 286.513 168.452 286.513 165.308C286.513 162.165 222.375 159.617 143.257 159.617C64.1382 159.617 0 162.165 0 165.308C0 168.452 64.1382 171 143.257 171Z" fill="#E6E6E6"/>
<path d="M36.4592 93.9799C56.5951 93.9799 72.9184 77.9829 72.9184 58.2496C72.9184 38.5164 56.5951 22.5194 36.4592 22.5194C16.3233 22.5194 0 38.5164 0 58.2496C0 77.9829 16.3233 93.9799 36.4592 93.9799Z" fill="#FF7573"/>
<path d="M39.9735 165.871H32.5059L35.9101 52.8685L39.9735 165.871Z" fill="#3F3D56"/>
<path d="M36.5688 74.2851L44.5857 63.4155L36.4591 76.9756L35.5806 75.469L36.5688 74.2851Z" fill="#3F3D56"/>
<path d="M35.6903 85.2625L27.6738 74.3929L35.8004 87.9531L36.6789 86.4464L35.6903 85.2625Z" fill="#3F3D56"/>
<path d="M266.993 165.99H259.525L262.93 52.9874L266.993 165.99Z" fill="#3F3D56"/>
<path d="M263.588 74.404L271.605 63.5344L263.479 77.0945L262.6 75.5879L263.588 74.404Z" fill="#3F3D56"/>
<path d="M262.71 85.3814L254.693 74.5118L262.82 88.0719L263.698 86.5653L262.71 85.3814Z" fill="#3F3D56"/>
<path d="M148.113 165.971C185.624 165.971 216.032 136.171 216.032 99.4102C216.032 62.6498 185.624 32.8496 148.113 32.8496C110.603 32.8496 80.1948 62.6498 80.1948 99.4102C80.1948 136.171 110.603 165.971 148.113 165.971Z" fill="#3F3D56"/>
<path d="M148.113 160.461C182.518 160.461 210.409 133.128 210.409 99.4102C210.409 65.6929 182.518 38.3596 148.113 38.3596C113.708 38.3596 85.8169 65.6929 85.8169 99.4102C85.8169 133.128 113.708 160.461 148.113 160.461Z" fill="white"/>
<path d="M147.889 107.785C152.484 107.785 156.21 104.134 156.21 99.6306C156.21 95.1269 152.484 91.4759 147.889 91.4759C143.293 91.4759 139.567 95.1269 139.567 99.6306C139.567 104.134 143.293 107.785 147.889 107.785Z" fill="#3F3D56"/>
<path d="M149.688 41.4452H146.089V48.0572H149.688V41.4452Z" fill="#3F3D56"/>
<path d="M149.688 151.204H146.089V157.816H149.688V151.204Z" fill="#3F3D56"/>
<path d="M95.2627 101.394V97.8674H88.5158V101.394H95.2627Z" fill="#3F3D56"/>
<path d="M207.261 101.394V97.8674H200.514V101.394H207.261Z" fill="#3F3D56"/>
<path d="M145.49 103.171L148.565 96.2798L187.097 117.194L145.49 103.171Z" fill="#3F3D56"/>
<path d="M156.884 16.7605H139.342V36.5964H156.884V16.7605Z" fill="#3F3D56"/>
<path d="M148.113 22.2704C159.292 22.2704 168.354 19.8035 168.354 16.7605C168.354 13.7174 159.292 11.2505 148.113 11.2505C136.935 11.2505 127.873 13.7174 127.873 16.7605C127.873 19.8035 136.935 22.2704 148.113 22.2704Z" fill="#3F3D56"/>
<path d="M186.008 111.202L184.884 112.744C184.884 112.744 179.711 118.695 179.486 115.83C179.261 112.965 183.309 110.981 183.309 110.981L185.558 109.659L186.008 111.202Z" fill="#FFB8B8"/>
<path d="M218.021 116.407L218.963 118.063C218.963 118.063 222.237 125.191 219.498 124.164C216.76 123.137 216.663 118.703 216.663 118.703L216.406 116.145L218.021 116.407Z" fill="#FFB8B8"/>
<path d="M212.958 87.0385C216.74 87.0385 219.806 84.0339 219.806 80.3275C219.806 76.6211 216.74 73.6164 212.958 73.6164C209.176 73.6164 206.11 76.6211 206.11 80.3275C206.11 84.0339 209.176 87.0385 212.958 87.0385Z" fill="#2F2E41"/>
<path d="M212.321 135.446L213.221 141.176V142.939H218.393V140.735C218.393 140.735 218.618 136.768 217.719 135.666C216.819 134.564 212.321 135.446 212.321 135.446Z" fill="#FFB8B8"/>
<path d="M203.101 135.446L204 141.176V142.939H209.173V140.735C209.173 140.735 209.398 136.768 208.498 135.666C207.598 134.564 203.101 135.446 203.101 135.446Z" fill="#FFB8B8"/>
<path d="M206.581 89.4157C206.581 89.4157 204.592 90.4433 205.95 92.7809C207.309 95.1185 215.282 119.302 215.282 119.302L219.882 118.023L215.825 102.728L213.503 93.1153L206.581 89.4157Z" fill="#FF7573"/>
<path d="M212.209 87.2883C215.065 87.2883 217.381 85.0187 217.381 82.2191C217.381 79.4194 215.065 77.1499 212.209 77.1499C209.352 77.1499 207.036 79.4194 207.036 82.2191C207.036 85.0187 209.352 87.2883 212.209 87.2883Z" fill="#FFB8B8"/>
<path d="M214.57 82.9905L213.895 93.3492L209.172 90.0432C209.172 90.0432 210.747 83.8721 210.297 83.4312L214.57 82.9905Z" fill="#FFB8B8"/>
<path d="M214.57 92.4676L209.482 88.7754C209.482 88.7754 207.148 87.8393 206.474 88.9413C205.799 90.0432 202.426 106.353 204.225 109.438C204.225 109.438 213.895 111.422 215.919 110.32L216.819 104.59C216.819 104.59 217.943 101.063 216.144 98.8592L214.57 92.4676Z" fill="#FF7573"/>
<path d="M207.823 89.1617C207.823 89.1617 206.024 87.8393 204.45 90.0432C202.876 92.2472 183.984 109.659 183.984 109.659L187.133 113.185L199.502 103.047L207.374 96.8756L207.823 89.1617Z" fill="#FF7573"/>
<path d="M216.032 110.21C216.032 110.21 204.9 108.116 203.775 109.659L203.55 112.083C203.55 112.083 201.076 116.712 202.426 124.205C203.775 131.699 202.875 136.327 202.875 136.327C202.875 136.327 208.948 135.666 213.446 136.327C217.944 136.988 218.618 136.327 218.618 136.327L216.032 110.21Z" fill="#2F2E41"/>
<path d="M218.843 142.058L212.321 142.278L214.57 158.808C214.57 158.808 212.771 165.861 214.795 166.301C216.202 166.58 217.633 166.727 219.068 166.742C219.068 166.742 221.092 168.726 223.341 168.505C224.835 168.318 226.282 167.871 227.614 167.183C227.614 167.183 228.064 165.861 226.49 165.42C224.915 164.979 220.642 163.657 219.743 159.028L218.843 142.058Z" fill="#2F2E41"/>
<path d="M209.623 142.058L203.101 142.278L205.35 158.808C205.35 158.808 203.55 165.861 205.574 166.301C206.981 166.58 208.412 166.727 209.847 166.742C209.847 166.742 211.872 168.726 214.12 168.505C215.614 168.318 217.061 167.871 218.393 167.183C218.393 167.183 218.843 165.861 217.269 165.42C215.695 164.979 211.422 163.657 210.522 159.028L209.623 142.058Z" fill="#2F2E41"/>
<path d="M215.354 76.0411C216.919 76.0411 218.187 74.7978 218.187 73.2641C218.187 71.7305 216.919 70.4872 215.354 70.4872C213.789 70.4872 212.52 71.7305 212.52 73.2641C212.52 74.7978 213.789 76.0411 215.354 76.0411Z" fill="#2F2E41"/>
<path d="M219.132 71.76C219.132 71.0735 218.873 70.4115 218.404 69.9014C217.935 69.3914 217.29 69.0695 216.594 68.998C216.692 68.988 216.79 68.983 216.889 68.983C217.64 68.983 218.361 69.2755 218.893 69.7963C219.424 70.3171 219.723 71.0234 219.723 71.7599C219.723 72.4964 219.424 73.2028 218.893 73.7236C218.361 74.2443 217.64 74.5369 216.889 74.5369C216.79 74.5369 216.692 74.5319 216.594 74.5219C217.29 74.4503 217.935 74.1285 218.404 73.6185C218.873 73.1085 219.132 72.4464 219.132 71.76Z" fill="#2F2E41"/>
<path d="M212.162 81.6815C214.77 81.6815 216.884 80.4382 216.884 78.9046C216.884 77.3709 214.77 76.1276 212.162 76.1276C209.553 76.1276 207.439 77.3709 207.439 78.9046C207.439 80.4382 209.553 81.6815 212.162 81.6815Z" fill="#2F2E41"/>
<path d="M286.55 13.3276C286.357 9.98503 284.959 6.81825 282.605 4.39185C280.251 1.96546 277.095 0.43717 273.698 0.0794701C270.301 -0.27823 266.885 0.557912 264.059 2.43881C261.233 4.31971 259.181 7.12312 258.267 10.3492C258.093 10.3431 257.918 10.3362 257.742 10.3362C254.628 10.3367 251.598 11.3255 249.104 13.1545C246.611 14.9834 244.789 17.5544 243.911 20.4826C241.848 19.594 239.542 19.4012 237.354 19.9344C235.167 20.4676 233.222 21.6968 231.823 23.4293H276.788C278.1 23.4329 279.399 23.1771 280.608 22.6772C281.816 22.1772 282.909 21.4435 283.822 20.5198C284.734 19.5961 285.447 18.5014 285.917 17.3014C286.388 16.1014 286.606 14.8207 286.56 13.5359C286.557 13.4666 286.554 13.3971 286.55 13.3276Z" fill="#E6E6E6"/>
<path d="M248.96 43.0591C251.098 43.0591 252.831 41.3603 252.831 39.2647C252.831 37.1691 251.098 35.4704 248.96 35.4704C246.821 35.4704 245.088 37.1691 245.088 39.2647C245.088 41.3603 246.821 43.0591 248.96 43.0591Z" fill="#E6E6E6"/>
<path d="M260.65 33.4781C262.431 33.4781 263.874 32.0636 263.874 30.3188C263.874 28.5739 262.431 27.1594 260.65 27.1594C258.87 27.1594 257.426 28.5739 257.426 30.3188C257.426 32.0636 258.87 33.4781 260.65 33.4781Z" fill="#E6E6E6"/>
<path d="M276.385 51.2802C278.523 51.2802 280.257 49.5814 280.257 47.4858C280.257 45.3903 278.523 43.6915 276.385 43.6915C274.247 43.6915 272.513 45.3903 272.513 47.4858C272.513 49.5814 274.247 51.2802 276.385 51.2802Z" fill="#E6E6E6"/>
<path d="M247.024 68.671C249.162 68.671 250.895 66.9722 250.895 64.8767C250.895 62.7811 249.162 61.0823 247.024 61.0823C244.885 61.0823 243.152 62.7811 243.152 64.8767C243.152 66.9722 244.885 68.671 247.024 68.671Z" fill="#E6E6E6"/>
<path d="M276.385 90.4886C278.523 90.4886 280.257 88.7899 280.257 86.6943C280.257 84.5987 278.523 82.8999 276.385 82.8999C274.247 82.8999 272.513 84.5987 272.513 86.6943C272.513 88.7899 274.247 90.4886 276.385 90.4886Z" fill="#E6E6E6"/>
<path d="M270.248 159.859C270.249 159.817 270.254 159.777 270.254 159.736C270.255 159.1 270.093 158.474 269.782 157.916C269.472 157.358 269.023 156.885 268.477 156.542C267.931 156.198 267.305 155.995 266.658 155.951C266.011 155.906 265.363 156.022 264.773 156.288C264.22 155.662 263.473 155.231 262.646 155.062C261.819 154.892 260.958 154.993 260.196 155.349C259.433 155.705 258.81 156.296 258.423 157.031C258.036 157.767 257.906 158.607 258.052 159.422C258.032 159.422 258.013 159.42 257.994 159.42C257.377 159.419 256.77 159.562 256.221 159.837C255.673 160.113 255.199 160.513 254.84 161.004C254.481 161.495 254.247 162.063 254.157 162.661C254.067 163.258 254.124 163.868 254.323 164.44C254.523 165.011 254.858 165.528 255.302 165.947C255.746 166.366 256.286 166.675 256.876 166.849C257.467 167.022 258.091 167.055 258.697 166.944C259.303 166.833 259.873 166.583 260.36 166.213C260.667 166.799 261.125 167.297 261.689 167.658C262.253 168.018 262.903 168.228 263.575 168.267C264.246 168.305 264.917 168.172 265.52 167.879C266.123 167.586 266.638 167.145 267.014 166.597C267.474 166.926 268.003 167.151 268.563 167.255C269.122 167.36 269.699 167.343 270.251 167.204C270.803 167.065 271.316 166.809 271.755 166.453C272.194 166.097 272.548 165.65 272.79 165.145C273.033 164.64 273.158 164.089 273.158 163.53C273.158 162.972 273.032 162.42 272.789 161.915C272.546 161.41 272.192 160.964 271.753 160.609C271.314 160.253 270.8 159.997 270.248 159.859Z" fill="#E6E6E6"/>
<path d="M279.934 73.0978C280.825 73.0978 281.547 72.39 281.547 71.5168C281.547 70.6437 280.825 69.9358 279.934 69.9358C279.043 69.9358 278.321 70.6437 278.321 71.5168C278.321 72.39 279.043 73.0978 279.934 73.0978Z" fill="#E6E6E6"/>
<path d="M269.609 35.1542C270.5 35.1542 271.223 34.4463 271.223 33.5732C271.223 32.7 270.5 31.9922 269.609 31.9922C268.718 31.9922 267.996 32.7 267.996 33.5732C267.996 34.4463 268.718 35.1542 269.609 35.1542Z" fill="#E6E6E6"/>
<path d="M264.124 74.3626C265.015 74.3626 265.737 73.6548 265.737 72.7816C265.737 71.9084 265.015 71.2006 264.124 71.2006C263.233 71.2006 262.511 71.9084 262.511 72.7816C262.511 73.6548 263.233 74.3626 264.124 74.3626Z" fill="#E6E6E6"/>
<path d="M265.415 72.7816C266.305 72.7816 267.028 72.0738 267.028 71.2006C267.028 70.3275 266.305 69.6196 265.415 69.6196C264.524 69.6196 263.801 70.3275 263.801 71.2006C263.801 72.0738 264.524 72.7816 265.415 72.7816Z" fill="#E6E6E6"/>
<path d="M266.383 71.2006C267.274 71.2006 267.996 70.4928 267.996 69.6196C267.996 68.7465 267.274 68.0387 266.383 68.0387C265.492 68.0387 264.77 68.7465 264.77 69.6196C264.77 70.4928 265.492 71.2006 266.383 71.2006Z" fill="#E6E6E6"/>
<path d="M262.511 84.4809C263.402 84.4809 264.124 83.7731 264.124 82.8999C264.124 82.0267 263.402 81.3189 262.511 81.3189C261.62 81.3189 260.897 82.0267 260.897 82.8999C260.897 83.7731 261.62 84.4809 262.511 84.4809Z" fill="#E6E6E6"/>
<path d="M286.387 102.188C287.278 102.188 288 101.48 288 100.607C288 99.7338 287.278 99.026 286.387 99.026C285.496 99.026 284.773 99.7338 284.773 100.607C284.773 101.48 285.496 102.188 286.387 102.188Z" fill="#E6E6E6"/>
<path d="M251.864 103.137C252.755 103.137 253.477 102.429 253.477 101.556C253.477 100.682 252.755 99.9746 251.864 99.9746C250.973 99.9746 250.25 100.682 250.25 101.556C250.25 102.429 250.973 103.137 251.864 103.137Z" fill="#E6E6E6"/>
<path d="M253.799 54.4422C254.69 54.4422 255.413 53.7343 255.413 52.8612C255.413 51.988 254.69 51.2802 253.799 51.2802C252.908 51.2802 252.186 51.988 252.186 52.8612C252.186 53.7343 252.908 54.4422 253.799 54.4422Z" fill="#E6E6E6"/>
<path d="M261.22 82.8999C262.111 82.8999 262.833 82.1921 262.833 81.3189C262.833 80.4458 262.111 79.7379 261.22 79.7379C260.329 79.7379 259.607 80.4458 259.607 81.3189C259.607 82.1921 260.329 82.8999 261.22 82.8999Z" fill="#E6E6E6"/>
<path d="M259.607 80.3703C260.498 80.3703 261.22 79.6625 261.22 78.7893C261.22 77.9162 260.498 77.2084 259.607 77.2084C258.716 77.2084 257.994 77.9162 257.994 78.7893C257.994 79.6625 258.716 80.3703 259.607 80.3703Z" fill="#E6E6E6"/>
</g>
<defs>
<clipPath id="clip0">
<rect width="288" height="171" fill="white"/>
</clipPath>
</defs>
</svg>
